G04 #@! TF.FileFunction,Soldermask,Top*
%FSLAX46Y46*%
G04 Gerber Fmt 4.6, Leading zero omitted, Abs format (unit mm)*
G04 Created by KiCad (PCBNEW 4.0.7) date 10/09/19 11:40:26*
%MOMM*%
%LPD*%
G01*
G04 APERTURE LIST*
%ADD10C,0.100000*%
%ADD11R,1.701600X3.101600*%
%ADD12R,1.571600X1.251600*%
%ADD13R,1.071600X1.021600*%
%ADD14R,0.641600X0.701600*%
%ADD15R,1.021600X1.071600*%
%ADD16R,2.301600X1.701600*%
%ADD17R,1.111600X1.031600*%
%ADD18R,1.401600X1.001600*%
%ADD19R,1.101600X1.201600*%
%ADD20R,1.625600X2.286000*%
%ADD21C,1.901600*%
%ADD22R,1.801600X1.801600*%
%ADD23O,1.801600X1.801600*%
%ADD24R,1.251600X1.101600*%
%ADD25R,2.301600X0.701600*%
%ADD26R,2.301600X3.251600*%
%ADD27R,2.301600X4.501600*%
%ADD28R,0.971600X1.031600*%
%ADD29R,0.661600X0.701600*%
%ADD30R,1.101600X1.521600*%
%ADD31R,1.701600X1.901600*%
%ADD32R,0.965200X0.558800*%
%ADD33R,1.625600X1.625600*%
G04 APERTURE END LIST*
D10*
G36*
X125978460Y-72280115D02*
X125978460Y-73079320D01*
X123566370Y-73079320D01*
X123566370Y-72280115D01*
X125978460Y-72280115D01*
G37*
G36*
X125978460Y-70977800D02*
X125978460Y-71779320D01*
X123572950Y-71779320D01*
X123572950Y-70977800D01*
X125978460Y-70977800D01*
G37*
G36*
X125978460Y-69723320D02*
X125978460Y-70529320D01*
X123568560Y-70529320D01*
X123568560Y-69723320D01*
X125978460Y-69723320D01*
G37*
G36*
X131178460Y-69722760D02*
X131178460Y-70529320D01*
X128782450Y-70529320D01*
X128782450Y-69722760D01*
X131178460Y-69722760D01*
G37*
G36*
X131178460Y-70977250D02*
X131178460Y-71779320D01*
X128781220Y-71779320D01*
X128781220Y-70977250D01*
X131178460Y-70977250D01*
G37*
G36*
X131178460Y-72279896D02*
X131178460Y-73079320D01*
X128781680Y-73079320D01*
X128781680Y-72279896D01*
X131178460Y-72279896D01*
G37*
G36*
X131178460Y-73531260D02*
X131178460Y-74329320D01*
X128780280Y-74329320D01*
X128780280Y-73531260D01*
X131178460Y-73531260D01*
G37*
D11*
X116205000Y-71012960D03*
X116205000Y-75412960D03*
D12*
X120533160Y-70610840D03*
X120533160Y-72370840D03*
D13*
X122499120Y-70472000D03*
X122499120Y-72022000D03*
D14*
X106043200Y-81244440D03*
X105183200Y-81244440D03*
D15*
X105021080Y-86309200D03*
X106571080Y-86309200D03*
D16*
X129170560Y-85262720D03*
X126170560Y-85262720D03*
D17*
X116524700Y-81648300D03*
X117942700Y-81648300D03*
D18*
X109072680Y-86675000D03*
X109072680Y-84775000D03*
D19*
X110926880Y-84798800D03*
X110926880Y-86498800D03*
D20*
X121480580Y-76382880D03*
X125163580Y-76382880D03*
X121513600Y-79461360D03*
X125196600Y-79461360D03*
D21*
X106545440Y-72867520D03*
X110045440Y-72867520D03*
D22*
X174117000Y-71628000D03*
D23*
X174117000Y-74168000D03*
X174117000Y-76708000D03*
X174117000Y-79248000D03*
D21*
X133390700Y-84239100D03*
X136890700Y-84239100D03*
D22*
X174122080Y-82925920D03*
D23*
X174122080Y-85465920D03*
X174122080Y-88005920D03*
X174122080Y-90545920D03*
X174122080Y-93085920D03*
X174122080Y-95625920D03*
X174122080Y-98165920D03*
D24*
X123872240Y-85222080D03*
X121522240Y-85222080D03*
D25*
X124778460Y-73934320D03*
D26*
X124778460Y-71394320D03*
D27*
X129978460Y-72029320D03*
D28*
X104741760Y-79354680D03*
X106301760Y-79354680D03*
D29*
X106154880Y-82509360D03*
X105284880Y-82509360D03*
X106113440Y-77861160D03*
X105143440Y-77861160D03*
D30*
X114605080Y-85323680D03*
X112735080Y-85323680D03*
D28*
X106497340Y-84559140D03*
X104937340Y-84559140D03*
D31*
X119459200Y-85283040D03*
X116659200Y-85283040D03*
D32*
X109100620Y-78709520D03*
X109100620Y-79700120D03*
X109100620Y-80690720D03*
X109100620Y-81681320D03*
X109100620Y-82671920D03*
X114256820Y-82671920D03*
X114256820Y-81681320D03*
X114256820Y-80690720D03*
X114256820Y-79700120D03*
X114256820Y-78709520D03*
D33*
X143118840Y-71161910D03*
X143118840Y-73160890D03*
X143118840Y-75159870D03*
X143118840Y-77158850D03*
X143118840Y-79157830D03*
X143118840Y-81156810D03*
X143118840Y-83155790D03*
X143118840Y-85154770D03*
X143118840Y-87153750D03*
X143118840Y-89152730D03*
X147120610Y-98720910D03*
X149119590Y-98720910D03*
X151118570Y-98720910D03*
X153117550Y-98720910D03*
X155116530Y-98720910D03*
X157115510Y-98720910D03*
X159114490Y-98720910D03*
X161113470Y-98720910D03*
X165115240Y-89152730D03*
X165115240Y-87153750D03*
X165115240Y-85154770D03*
X165115240Y-83155790D03*
X165115240Y-81156810D03*
X165115240Y-79157830D03*
X165115240Y-77158850D03*
X165115240Y-75159870D03*
X165115240Y-73160890D03*
X165115240Y-71161910D03*
M02*
