G04 #@! TF.FileFunction,Soldermask,Bot*
%FSLAX46Y46*%
G04 Gerber Fmt 4.6, Leading zero omitted, Abs format (unit mm)*
G04 Created by KiCad (PCBNEW 4.0.7) date 10/09/19 11:40:26*
%MOMM*%
%LPD*%
G01*
G04 APERTURE LIST*
%ADD10C,0.100000*%
%ADD11C,1.901600*%
%ADD12R,1.801600X1.801600*%
%ADD13O,1.801600X1.801600*%
%ADD14R,1.625600X1.625600*%
G04 APERTURE END LIST*
D10*
D11*
X106545440Y-72867520D03*
X110045440Y-72867520D03*
D12*
X174117000Y-71628000D03*
D13*
X174117000Y-74168000D03*
X174117000Y-76708000D03*
X174117000Y-79248000D03*
D11*
X133390700Y-84239100D03*
X136890700Y-84239100D03*
D12*
X174122080Y-82925920D03*
D13*
X174122080Y-85465920D03*
X174122080Y-88005920D03*
X174122080Y-90545920D03*
X174122080Y-93085920D03*
X174122080Y-95625920D03*
X174122080Y-98165920D03*
D14*
X143118840Y-71161910D03*
X143118840Y-73160890D03*
X143118840Y-75159870D03*
X143118840Y-77158850D03*
X143118840Y-79157830D03*
X143118840Y-81156810D03*
X143118840Y-83155790D03*
X143118840Y-85154770D03*
X143118840Y-87153750D03*
X143118840Y-89152730D03*
X147120610Y-98720910D03*
X149119590Y-98720910D03*
X151118570Y-98720910D03*
X153117550Y-98720910D03*
X155116530Y-98720910D03*
X157115510Y-98720910D03*
X159114490Y-98720910D03*
X161113470Y-98720910D03*
X165115240Y-89152730D03*
X165115240Y-87153750D03*
X165115240Y-85154770D03*
X165115240Y-83155790D03*
X165115240Y-81156810D03*
X165115240Y-79157830D03*
X165115240Y-77158850D03*
X165115240Y-75159870D03*
X165115240Y-73160890D03*
X165115240Y-71161910D03*
M02*
