G04 #@! TF.FileFunction,Copper,L1,Top,Signal*
%FSLAX46Y46*%
G04 Gerber Fmt 4.6, Leading zero omitted, Abs format (unit mm)*
G04 Created by KiCad (PCBNEW 4.0.7) date 10/09/19 11:40:26*
%MOMM*%
%LPD*%
G01*
G04 APERTURE LIST*
%ADD10C,0.100000*%
%ADD11R,1.600000X3.000000*%
%ADD12R,1.470000X1.150000*%
%ADD13R,0.970000X0.920000*%
%ADD14R,0.540000X0.600000*%
%ADD15R,0.920000X0.970000*%
%ADD16R,2.200000X1.600000*%
%ADD17R,1.010000X0.930000*%
%ADD18R,1.300000X0.900000*%
%ADD19R,1.000000X1.100000*%
%ADD20R,1.524000X2.184400*%
%ADD21C,1.800000*%
%ADD22R,1.700000X1.700000*%
%ADD23O,1.700000X1.700000*%
%ADD24R,1.150000X1.000000*%
%ADD25R,2.200000X0.600000*%
%ADD26R,2.200000X3.150000*%
%ADD27R,2.200000X4.400000*%
%ADD28R,0.870000X0.930000*%
%ADD29R,0.560000X0.600000*%
%ADD30R,1.000000X1.420000*%
%ADD31R,1.600000X1.800000*%
%ADD32R,0.863600X0.457200*%
%ADD33R,1.524000X1.524000*%
%ADD34C,0.600000*%
%ADD35C,0.508000*%
%ADD36C,0.762000*%
%ADD37C,0.030000*%
G04 APERTURE END LIST*
D10*
D11*
X116205000Y-71012960D03*
X116205000Y-75412960D03*
D12*
X120533160Y-70610840D03*
X120533160Y-72370840D03*
D13*
X122499120Y-70472000D03*
X122499120Y-72022000D03*
D14*
X106043200Y-81244440D03*
X105183200Y-81244440D03*
D15*
X105021080Y-86309200D03*
X106571080Y-86309200D03*
D16*
X129170560Y-85262720D03*
X126170560Y-85262720D03*
D17*
X116524700Y-81648300D03*
X117942700Y-81648300D03*
D18*
X109072680Y-86675000D03*
X109072680Y-84775000D03*
D19*
X110926880Y-84798800D03*
X110926880Y-86498800D03*
D20*
X121480580Y-76382880D03*
X125163580Y-76382880D03*
X121513600Y-79461360D03*
X125196600Y-79461360D03*
D21*
X106545440Y-72867520D03*
X110045440Y-72867520D03*
D22*
X174117000Y-71628000D03*
D23*
X174117000Y-74168000D03*
X174117000Y-76708000D03*
X174117000Y-79248000D03*
D21*
X133390700Y-84239100D03*
X136890700Y-84239100D03*
D22*
X174122080Y-82925920D03*
D23*
X174122080Y-85465920D03*
X174122080Y-88005920D03*
X174122080Y-90545920D03*
X174122080Y-93085920D03*
X174122080Y-95625920D03*
X174122080Y-98165920D03*
D24*
X123872240Y-85222080D03*
X121522240Y-85222080D03*
D25*
X124778460Y-73934320D03*
D26*
X124778460Y-71394320D03*
D27*
X129978460Y-72029320D03*
D28*
X104741760Y-79354680D03*
X106301760Y-79354680D03*
D29*
X106154880Y-82509360D03*
X105284880Y-82509360D03*
X106113440Y-77861160D03*
X105143440Y-77861160D03*
D30*
X114605080Y-85323680D03*
X112735080Y-85323680D03*
D28*
X106497340Y-84559140D03*
X104937340Y-84559140D03*
D31*
X119459200Y-85283040D03*
X116659200Y-85283040D03*
D32*
X109100620Y-78709520D03*
X109100620Y-79700120D03*
X109100620Y-80690720D03*
X109100620Y-81681320D03*
X109100620Y-82671920D03*
X114256820Y-82671920D03*
X114256820Y-81681320D03*
X114256820Y-80690720D03*
X114256820Y-79700120D03*
X114256820Y-78709520D03*
D33*
X143118840Y-71161910D03*
X143118840Y-73160890D03*
X143118840Y-75159870D03*
X143118840Y-77158850D03*
X143118840Y-79157830D03*
X143118840Y-81156810D03*
X143118840Y-83155790D03*
X143118840Y-85154770D03*
X143118840Y-87153750D03*
X143118840Y-89152730D03*
X147120610Y-98720910D03*
X149119590Y-98720910D03*
X151118570Y-98720910D03*
X153117550Y-98720910D03*
X155116530Y-98720910D03*
X157115510Y-98720910D03*
X159114490Y-98720910D03*
X161113470Y-98720910D03*
X165115240Y-89152730D03*
X165115240Y-87153750D03*
X165115240Y-85154770D03*
X165115240Y-83155790D03*
X165115240Y-81156810D03*
X165115240Y-79157830D03*
X165115240Y-77158850D03*
X165115240Y-75159870D03*
X165115240Y-73160890D03*
X165115240Y-71161910D03*
D34*
X112847120Y-80639920D03*
X114117120Y-83781900D03*
X129494280Y-82570320D03*
X116159280Y-77617320D03*
X110779560Y-79491840D03*
X117995700Y-83012280D03*
X125196600Y-81320640D03*
X107754420Y-78714600D03*
X106989880Y-81198720D03*
X113045240Y-82656680D03*
X106883200Y-83301840D03*
D35*
X114605080Y-85323680D02*
X114605080Y-84577200D01*
X112758220Y-80551020D02*
X112758220Y-79700120D01*
X112847120Y-80639920D02*
X112758220Y-80551020D01*
X114117120Y-84089240D02*
X114117120Y-83781900D01*
X114605080Y-84577200D02*
X114117120Y-84089240D01*
X104741760Y-79354680D02*
X104741760Y-80180400D01*
X104485440Y-81244440D02*
X105183200Y-81244440D01*
X104317800Y-81076800D02*
X104485440Y-81244440D01*
X104317800Y-80604360D02*
X104317800Y-81076800D01*
X104741760Y-80180400D02*
X104317800Y-80604360D01*
X104741760Y-79354680D02*
X104741760Y-79387920D01*
X106545440Y-74200960D02*
X107673080Y-74200960D01*
X111152940Y-77929740D02*
X112524540Y-77929740D01*
X110893860Y-77670660D02*
X111152940Y-77929740D01*
X110893860Y-77421740D02*
X110893860Y-77670660D01*
X107673080Y-74200960D02*
X110893860Y-77421740D01*
X105143440Y-77861160D02*
X105143440Y-77863560D01*
X105143440Y-77863560D02*
X104741760Y-78265240D01*
X104741760Y-78265240D02*
X104741760Y-79354680D01*
X106545440Y-72867520D02*
X106545440Y-74200960D01*
X105143440Y-75602960D02*
X105143440Y-77861160D01*
X106545440Y-74200960D02*
X105143440Y-75602960D01*
X114256820Y-79700120D02*
X112758220Y-79700120D01*
X112758220Y-79700120D02*
X112709960Y-79700120D01*
X112709960Y-79700120D02*
X112349280Y-79339440D01*
X112349280Y-79339440D02*
X112349280Y-78105000D01*
X112349280Y-78105000D02*
X112524540Y-77929740D01*
X113573920Y-71012960D02*
X116205000Y-71012960D01*
X112524540Y-77929740D02*
X113400840Y-77053440D01*
X113400840Y-77053440D02*
X113400840Y-71186040D01*
X113400840Y-71186040D02*
X113573920Y-71012960D01*
X122499120Y-70472000D02*
X123856140Y-70472000D01*
X123856140Y-70472000D02*
X124778460Y-71394320D01*
X120533160Y-70610840D02*
X121458880Y-70610840D01*
X121597720Y-70472000D02*
X122499120Y-70472000D01*
X121458880Y-70610840D02*
X121597720Y-70472000D01*
X116205000Y-71012960D02*
X117983360Y-71012960D01*
X118385480Y-70610840D02*
X120533160Y-70610840D01*
X117983360Y-71012960D02*
X118385480Y-70610840D01*
X136890700Y-84239100D02*
X138638280Y-84239100D01*
X141819630Y-89152730D02*
X143118840Y-89152730D01*
X141404340Y-88737440D02*
X141819630Y-89152730D01*
X141404340Y-87005160D02*
X141404340Y-88737440D01*
X138638280Y-84239100D02*
X141404340Y-87005160D01*
X129170560Y-85262720D02*
X129170560Y-82894040D01*
X129170560Y-82894040D02*
X129494280Y-82570320D01*
D36*
X129170560Y-85262720D02*
X129170560Y-86282660D01*
X129170560Y-86282660D02*
X130144520Y-87256620D01*
X130144520Y-87256620D02*
X136095740Y-87256620D01*
X136095740Y-87256620D02*
X136890700Y-86461660D01*
X136890700Y-86461660D02*
X136890700Y-84239100D01*
D35*
X105284880Y-82509360D02*
X104531160Y-82509360D01*
X106571080Y-87525560D02*
X106571080Y-86309200D01*
X106299000Y-87797640D02*
X106571080Y-87525560D01*
X104317800Y-87797640D02*
X106299000Y-87797640D01*
X103769160Y-87249000D02*
X104317800Y-87797640D01*
X103769160Y-83271360D02*
X103769160Y-87249000D01*
X104531160Y-82509360D02*
X103769160Y-83271360D01*
X116205000Y-77571600D02*
X116205000Y-75412960D01*
X116159280Y-77617320D02*
X116205000Y-77571600D01*
X109100620Y-79700120D02*
X110571280Y-79700120D01*
X110571280Y-79700120D02*
X110779560Y-79491840D01*
X149119590Y-96659700D02*
X152019000Y-96659700D01*
X177363120Y-82730340D02*
X176832260Y-82199480D01*
X177363120Y-99471480D02*
X177363120Y-82730340D01*
X175666400Y-101168200D02*
X177363120Y-99471480D01*
X170129200Y-101168200D02*
X175666400Y-101168200D01*
X164020500Y-95059500D02*
X170129200Y-101168200D01*
X153619200Y-95059500D02*
X164020500Y-95059500D01*
X152019000Y-96659700D02*
X153619200Y-95059500D01*
X174122080Y-82925920D02*
X176105820Y-82925920D01*
X176105820Y-82925920D02*
X176832260Y-82199480D01*
X176174400Y-76708000D02*
X174117000Y-76708000D01*
X176832260Y-82199480D02*
X176832260Y-77365860D01*
X176832260Y-77365860D02*
X176174400Y-76708000D01*
X143118840Y-89152730D02*
X145274030Y-89152730D01*
X149119590Y-96655890D02*
X149119590Y-96659700D01*
X146875500Y-94411800D02*
X149119590Y-96655890D01*
X146875500Y-90754200D02*
X146875500Y-94411800D01*
X145274030Y-89152730D02*
X146875500Y-90754200D01*
X149119590Y-96659700D02*
X149119590Y-98720910D01*
X117942700Y-81648300D02*
X117942700Y-82959280D01*
X117942700Y-82959280D02*
X117995700Y-83012280D01*
X125196600Y-81320640D02*
X125196600Y-79461360D01*
X106043200Y-81244440D02*
X106944160Y-81244440D01*
X107759500Y-78709520D02*
X109100620Y-78709520D01*
X107754420Y-78714600D02*
X107759500Y-78709520D01*
X106944160Y-81244440D02*
X106989880Y-81198720D01*
X104937340Y-84559140D02*
X104937340Y-86225460D01*
X104937340Y-86225460D02*
X105021080Y-86309200D01*
D36*
X133390700Y-84239100D02*
X133997700Y-84239100D01*
X133997700Y-84239100D02*
X135392160Y-82844640D01*
X138134090Y-71161910D02*
X143118840Y-71161910D01*
X135392160Y-73903840D02*
X138134090Y-71161910D01*
X135392160Y-82844640D02*
X135392160Y-73903840D01*
X126170560Y-85262720D02*
X126170560Y-83265140D01*
X133390700Y-82298600D02*
X133390700Y-84239100D01*
X132473700Y-81381600D02*
X133390700Y-82298600D01*
X128054100Y-81381600D02*
X132473700Y-81381600D01*
X126170560Y-83265140D02*
X128054100Y-81381600D01*
D35*
X116659200Y-85283040D02*
X116659200Y-87169800D01*
X126170560Y-86960840D02*
X126170560Y-85262720D01*
X125615700Y-87515700D02*
X126170560Y-86960840D01*
X117005100Y-87515700D02*
X125615700Y-87515700D01*
X116659200Y-87169800D02*
X117005100Y-87515700D01*
X116659200Y-85283040D02*
X116659200Y-85255560D01*
X116659200Y-85255560D02*
X117485160Y-84429600D01*
X116524700Y-82661420D02*
X116524700Y-81648300D01*
X117485160Y-83621880D02*
X116524700Y-82661420D01*
X117485160Y-84429600D02*
X117485160Y-83621880D01*
X114256820Y-81681320D02*
X114950240Y-81681320D01*
X116659200Y-83807760D02*
X116659200Y-85283040D01*
X116692680Y-83774280D02*
X116659200Y-83807760D01*
X115580160Y-83774280D02*
X116692680Y-83774280D01*
X115382040Y-83576160D02*
X115580160Y-83774280D01*
X115382040Y-82113120D02*
X115382040Y-83576160D01*
X114950240Y-81681320D02*
X115382040Y-82113120D01*
X116659200Y-81782800D02*
X116524700Y-81648300D01*
X116524700Y-85148540D02*
X116659200Y-85283040D01*
X110926880Y-86498800D02*
X110981120Y-86498800D01*
X110981120Y-86498800D02*
X112156240Y-85323680D01*
X112156240Y-85323680D02*
X112735080Y-85323680D01*
X109072680Y-86675000D02*
X110750680Y-86675000D01*
X110750680Y-86675000D02*
X110926880Y-86498800D01*
X109072680Y-84775000D02*
X109072680Y-84368640D01*
X109072680Y-84368640D02*
X110459520Y-82981800D01*
X110459520Y-82981800D02*
X110459520Y-82052160D01*
X110459520Y-82052160D02*
X110088680Y-81681320D01*
X110088680Y-81681320D02*
X109100620Y-81681320D01*
X110926880Y-84798800D02*
X110926880Y-84023200D01*
X110723680Y-80690720D02*
X109100620Y-80690720D01*
X111760000Y-81727040D02*
X110723680Y-80690720D01*
X111760000Y-83190080D02*
X111760000Y-81727040D01*
X110926880Y-84023200D02*
X111760000Y-83190080D01*
X121513600Y-79461360D02*
X121513600Y-76415900D01*
X121513600Y-76415900D02*
X121480580Y-76382880D01*
X123872240Y-85222080D02*
X123872240Y-83806280D01*
X121513600Y-83068160D02*
X121513600Y-79461360D01*
X122069860Y-83624420D02*
X121513600Y-83068160D01*
X123690380Y-83624420D02*
X122069860Y-83624420D01*
X123872240Y-83806280D02*
X123690380Y-83624420D01*
X121526300Y-80314800D02*
X121450100Y-80391000D01*
X125163580Y-76382880D02*
X129702560Y-76382880D01*
X129978460Y-76106980D02*
X129978460Y-72029320D01*
X129702560Y-76382880D02*
X129978460Y-76106980D01*
X165115240Y-71161910D02*
X169485310Y-71161910D01*
X172651420Y-93085920D02*
X174122080Y-93085920D01*
X171310300Y-91744800D02*
X172651420Y-93085920D01*
X171310300Y-72986900D02*
X171310300Y-91744800D01*
X169485310Y-71161910D02*
X171310300Y-72986900D01*
X119459200Y-85283040D02*
X121461280Y-85283040D01*
X121461280Y-85283040D02*
X121522240Y-85222080D01*
X114256820Y-80690720D02*
X115295680Y-80690720D01*
X119459200Y-80769920D02*
X119459200Y-85283040D01*
X118872000Y-80182720D02*
X119459200Y-80769920D01*
X115803680Y-80182720D02*
X118872000Y-80182720D01*
X115295680Y-80690720D02*
X115803680Y-80182720D01*
X114256820Y-78709520D02*
X115529360Y-78709520D01*
X120406160Y-73934320D02*
X124778460Y-73934320D01*
X119664480Y-74676000D02*
X120406160Y-73934320D01*
X119664480Y-77683360D02*
X119664480Y-74676000D01*
X118343680Y-79004160D02*
X119664480Y-77683360D01*
X115824000Y-79004160D02*
X118343680Y-79004160D01*
X115529360Y-78709520D02*
X115824000Y-79004160D01*
X106154880Y-82509360D02*
X106154880Y-83402780D01*
X113060480Y-82671920D02*
X114256820Y-82671920D01*
X113045240Y-82656680D02*
X113060480Y-82671920D01*
X106255820Y-83301840D02*
X106883200Y-83301840D01*
X106154880Y-83402780D02*
X106255820Y-83301840D01*
X106301760Y-79354680D02*
X106593640Y-79354680D01*
X106593640Y-79354680D02*
X107807760Y-80568800D01*
X107515660Y-82509360D02*
X106154880Y-82509360D01*
X107807760Y-82217260D02*
X107515660Y-82509360D01*
X107807760Y-80568800D02*
X107807760Y-82217260D01*
X106113440Y-77861160D02*
X106113440Y-78437600D01*
X106301760Y-78625920D02*
X106301760Y-79354680D01*
X106113440Y-78437600D02*
X106301760Y-78625920D01*
X106497340Y-84559140D02*
X107533440Y-84559140D01*
X108391960Y-82671920D02*
X109100620Y-82671920D01*
X107614720Y-83449160D02*
X108391960Y-82671920D01*
X107614720Y-84477860D02*
X107614720Y-83449160D01*
X107533440Y-84559140D02*
X107614720Y-84477860D01*
X106497340Y-84559140D02*
X106664760Y-84559140D01*
D37*
G36*
X179192160Y-102374940D02*
X139808980Y-102374940D01*
X139808980Y-97958910D01*
X146169986Y-97958910D01*
X146169986Y-99482910D01*
X146182886Y-99551467D01*
X146223403Y-99614432D01*
X146285225Y-99656673D01*
X146358610Y-99671534D01*
X147594702Y-99671534D01*
X147698881Y-99923045D01*
X147917455Y-100141619D01*
X148203035Y-100259910D01*
X148686340Y-100259910D01*
X148880590Y-100065660D01*
X148880590Y-98959910D01*
X148860590Y-98959910D01*
X148860590Y-98481910D01*
X148880590Y-98481910D01*
X148880590Y-97376160D01*
X149358590Y-97376160D01*
X149358590Y-98481910D01*
X149378590Y-98481910D01*
X149378590Y-98959910D01*
X149358590Y-98959910D01*
X149358590Y-100065660D01*
X149552840Y-100259910D01*
X150036145Y-100259910D01*
X150321725Y-100141619D01*
X150540299Y-99923045D01*
X150644478Y-99671534D01*
X151880570Y-99671534D01*
X151949127Y-99658634D01*
X152012092Y-99618117D01*
X152054333Y-99556295D01*
X152069194Y-99482910D01*
X152069194Y-97958910D01*
X152166926Y-97958910D01*
X152166926Y-99482910D01*
X152179826Y-99551467D01*
X152220343Y-99614432D01*
X152282165Y-99656673D01*
X152355550Y-99671534D01*
X153879550Y-99671534D01*
X153948107Y-99658634D01*
X154011072Y-99618117D01*
X154053313Y-99556295D01*
X154068174Y-99482910D01*
X154068174Y-97958910D01*
X154165906Y-97958910D01*
X154165906Y-99482910D01*
X154178806Y-99551467D01*
X154219323Y-99614432D01*
X154281145Y-99656673D01*
X154354530Y-99671534D01*
X155878530Y-99671534D01*
X155947087Y-99658634D01*
X156010052Y-99618117D01*
X156052293Y-99556295D01*
X156067154Y-99482910D01*
X156067154Y-97958910D01*
X156164886Y-97958910D01*
X156164886Y-99482910D01*
X156177786Y-99551467D01*
X156218303Y-99614432D01*
X156280125Y-99656673D01*
X156353510Y-99671534D01*
X157877510Y-99671534D01*
X157946067Y-99658634D01*
X158009032Y-99618117D01*
X158051273Y-99556295D01*
X158066134Y-99482910D01*
X158066134Y-97958910D01*
X158163866Y-97958910D01*
X158163866Y-99482910D01*
X158176766Y-99551467D01*
X158217283Y-99614432D01*
X158279105Y-99656673D01*
X158352490Y-99671534D01*
X159876490Y-99671534D01*
X159945047Y-99658634D01*
X160008012Y-99618117D01*
X160050253Y-99556295D01*
X160065114Y-99482910D01*
X160065114Y-97958910D01*
X160162846Y-97958910D01*
X160162846Y-99482910D01*
X160175746Y-99551467D01*
X160216263Y-99614432D01*
X160278085Y-99656673D01*
X160351470Y-99671534D01*
X161875470Y-99671534D01*
X161944027Y-99658634D01*
X162006992Y-99618117D01*
X162049233Y-99556295D01*
X162064094Y-99482910D01*
X162064094Y-98165920D01*
X173066803Y-98165920D01*
X173145588Y-98561997D01*
X173369947Y-98897776D01*
X173705726Y-99122135D01*
X174101803Y-99200920D01*
X174142357Y-99200920D01*
X174538434Y-99122135D01*
X174874213Y-98897776D01*
X175098572Y-98561997D01*
X175177357Y-98165920D01*
X175098572Y-97769843D01*
X174874213Y-97434064D01*
X174538434Y-97209705D01*
X174142357Y-97130920D01*
X174101803Y-97130920D01*
X173705726Y-97209705D01*
X173369947Y-97434064D01*
X173145588Y-97769843D01*
X173066803Y-98165920D01*
X162064094Y-98165920D01*
X162064094Y-97958910D01*
X162051194Y-97890353D01*
X162010677Y-97827388D01*
X161948855Y-97785147D01*
X161875470Y-97770286D01*
X160351470Y-97770286D01*
X160282913Y-97783186D01*
X160219948Y-97823703D01*
X160177707Y-97885525D01*
X160162846Y-97958910D01*
X160065114Y-97958910D01*
X160052214Y-97890353D01*
X160011697Y-97827388D01*
X159949875Y-97785147D01*
X159876490Y-97770286D01*
X158352490Y-97770286D01*
X158283933Y-97783186D01*
X158220968Y-97823703D01*
X158178727Y-97885525D01*
X158163866Y-97958910D01*
X158066134Y-97958910D01*
X158053234Y-97890353D01*
X158012717Y-97827388D01*
X157950895Y-97785147D01*
X157877510Y-97770286D01*
X156353510Y-97770286D01*
X156284953Y-97783186D01*
X156221988Y-97823703D01*
X156179747Y-97885525D01*
X156164886Y-97958910D01*
X156067154Y-97958910D01*
X156054254Y-97890353D01*
X156013737Y-97827388D01*
X155951915Y-97785147D01*
X155878530Y-97770286D01*
X154354530Y-97770286D01*
X154285973Y-97783186D01*
X154223008Y-97823703D01*
X154180767Y-97885525D01*
X154165906Y-97958910D01*
X154068174Y-97958910D01*
X154055274Y-97890353D01*
X154014757Y-97827388D01*
X153952935Y-97785147D01*
X153879550Y-97770286D01*
X152355550Y-97770286D01*
X152286993Y-97783186D01*
X152224028Y-97823703D01*
X152181787Y-97885525D01*
X152166926Y-97958910D01*
X152069194Y-97958910D01*
X152056294Y-97890353D01*
X152015777Y-97827388D01*
X151953955Y-97785147D01*
X151880570Y-97770286D01*
X150644478Y-97770286D01*
X150540299Y-97518775D01*
X150321725Y-97300201D01*
X150036145Y-97181910D01*
X149552840Y-97181910D01*
X149358590Y-97376160D01*
X148880590Y-97376160D01*
X148686340Y-97181910D01*
X148203035Y-97181910D01*
X147917455Y-97300201D01*
X147698881Y-97518775D01*
X147594702Y-97770286D01*
X146358610Y-97770286D01*
X146290053Y-97783186D01*
X146227088Y-97823703D01*
X146184847Y-97885525D01*
X146169986Y-97958910D01*
X139808980Y-97958910D01*
X139808980Y-95625920D01*
X173066803Y-95625920D01*
X173145588Y-96021997D01*
X173369947Y-96357776D01*
X173705726Y-96582135D01*
X174101803Y-96660920D01*
X174142357Y-96660920D01*
X174538434Y-96582135D01*
X174874213Y-96357776D01*
X175098572Y-96021997D01*
X175177357Y-95625920D01*
X175098572Y-95229843D01*
X174874213Y-94894064D01*
X174538434Y-94669705D01*
X174142357Y-94590920D01*
X174101803Y-94590920D01*
X173705726Y-94669705D01*
X173369947Y-94894064D01*
X173145588Y-95229843D01*
X173066803Y-95625920D01*
X139808980Y-95625920D01*
X139808980Y-89585980D01*
X141579840Y-89585980D01*
X141579840Y-90069285D01*
X141698131Y-90354865D01*
X141916705Y-90573439D01*
X142202285Y-90691730D01*
X142685590Y-90691730D01*
X142879840Y-90497480D01*
X142879840Y-89391730D01*
X143357840Y-89391730D01*
X143357840Y-90497480D01*
X143552090Y-90691730D01*
X144035395Y-90691730D01*
X144320975Y-90573439D01*
X144539549Y-90354865D01*
X144657840Y-90069285D01*
X144657840Y-89585980D01*
X144463590Y-89391730D01*
X143357840Y-89391730D01*
X142879840Y-89391730D01*
X141774090Y-89391730D01*
X141579840Y-89585980D01*
X139808980Y-89585980D01*
X139808980Y-88803480D01*
X139804938Y-88783160D01*
X139793427Y-88765933D01*
X139776200Y-88754422D01*
X139755880Y-88750380D01*
X102628460Y-88750380D01*
X102628460Y-88236175D01*
X141579840Y-88236175D01*
X141579840Y-88719480D01*
X141774090Y-88913730D01*
X142879840Y-88913730D01*
X142879840Y-88893730D01*
X143357840Y-88893730D01*
X143357840Y-88913730D01*
X144463590Y-88913730D01*
X144657840Y-88719480D01*
X144657840Y-88390730D01*
X164164616Y-88390730D01*
X164164616Y-89914730D01*
X164177516Y-89983287D01*
X164218033Y-90046252D01*
X164279855Y-90088493D01*
X164353240Y-90103354D01*
X165877240Y-90103354D01*
X165945797Y-90090454D01*
X166008762Y-90049937D01*
X166051003Y-89988115D01*
X166065864Y-89914730D01*
X166065864Y-88390730D01*
X166052964Y-88322173D01*
X166012447Y-88259208D01*
X165950625Y-88216967D01*
X165877240Y-88202106D01*
X164353240Y-88202106D01*
X164284683Y-88215006D01*
X164221718Y-88255523D01*
X164179477Y-88317345D01*
X164164616Y-88390730D01*
X144657840Y-88390730D01*
X144657840Y-88236175D01*
X144539549Y-87950595D01*
X144320975Y-87732021D01*
X144069464Y-87627842D01*
X144069464Y-86391750D01*
X164164616Y-86391750D01*
X164164616Y-87915750D01*
X164177516Y-87984307D01*
X164218033Y-88047272D01*
X164279855Y-88089513D01*
X164353240Y-88104374D01*
X165877240Y-88104374D01*
X165945797Y-88091474D01*
X166008762Y-88050957D01*
X166051003Y-87989135D01*
X166065864Y-87915750D01*
X166065864Y-86391750D01*
X166052964Y-86323193D01*
X166012447Y-86260228D01*
X165950625Y-86217987D01*
X165877240Y-86203126D01*
X164353240Y-86203126D01*
X164284683Y-86216026D01*
X164221718Y-86256543D01*
X164179477Y-86318365D01*
X164164616Y-86391750D01*
X144069464Y-86391750D01*
X144056564Y-86323193D01*
X144016047Y-86260228D01*
X143954225Y-86217987D01*
X143880840Y-86203126D01*
X142356840Y-86203126D01*
X142288283Y-86216026D01*
X142225318Y-86256543D01*
X142183077Y-86318365D01*
X142168216Y-86391750D01*
X142168216Y-87627842D01*
X141916705Y-87732021D01*
X141698131Y-87950595D01*
X141579840Y-88236175D01*
X102628460Y-88236175D01*
X102628460Y-82853610D01*
X104227880Y-82853610D01*
X104227880Y-82963915D01*
X104346171Y-83249495D01*
X104564745Y-83468069D01*
X104850325Y-83586360D01*
X104950630Y-83586360D01*
X105144880Y-83392110D01*
X105144880Y-82659360D01*
X104422130Y-82659360D01*
X104227880Y-82853610D01*
X102628460Y-82853610D01*
X102628460Y-80604360D01*
X103878800Y-80604360D01*
X103878800Y-81076800D01*
X103912217Y-81244798D01*
X104007380Y-81387220D01*
X104175020Y-81554860D01*
X104317442Y-81650023D01*
X104440830Y-81674566D01*
X104346171Y-81769225D01*
X104227880Y-82054805D01*
X104227880Y-82165110D01*
X104422130Y-82359360D01*
X105144880Y-82359360D01*
X105144880Y-82250360D01*
X105424880Y-82250360D01*
X105424880Y-82359360D01*
X105543880Y-82359360D01*
X105543880Y-82659360D01*
X105424880Y-82659360D01*
X105424880Y-83392110D01*
X105619130Y-83586360D01*
X105719435Y-83586360D01*
X105750978Y-83573294D01*
X105844460Y-83713200D01*
X105986882Y-83808363D01*
X106154880Y-83841780D01*
X106322878Y-83808363D01*
X106423934Y-83740840D01*
X106675727Y-83740840D01*
X106786304Y-83786756D01*
X106979249Y-83786924D01*
X107157572Y-83713243D01*
X107175720Y-83695126D01*
X107175720Y-84120140D01*
X107120964Y-84120140D01*
X107120964Y-84094140D01*
X107108064Y-84025583D01*
X107067547Y-83962618D01*
X107005725Y-83920377D01*
X106932340Y-83905516D01*
X106062340Y-83905516D01*
X105993783Y-83918416D01*
X105930818Y-83958933D01*
X105888577Y-84020755D01*
X105873716Y-84094140D01*
X105873716Y-85024140D01*
X105883729Y-85077353D01*
X105670945Y-85165491D01*
X105452371Y-85384065D01*
X105376340Y-85567620D01*
X105376340Y-85212011D01*
X105440897Y-85199864D01*
X105503862Y-85159347D01*
X105546103Y-85097525D01*
X105560964Y-85024140D01*
X105560964Y-84094140D01*
X105548064Y-84025583D01*
X105507547Y-83962618D01*
X105445725Y-83920377D01*
X105372340Y-83905516D01*
X104502340Y-83905516D01*
X104433783Y-83918416D01*
X104370818Y-83958933D01*
X104328577Y-84020755D01*
X104313716Y-84094140D01*
X104313716Y-85024140D01*
X104326616Y-85092697D01*
X104367133Y-85155662D01*
X104428955Y-85197903D01*
X104498340Y-85211954D01*
X104498340Y-85647381D01*
X104492523Y-85648476D01*
X104429558Y-85688993D01*
X104387317Y-85750815D01*
X104372456Y-85824200D01*
X104372456Y-86794200D01*
X104385356Y-86862757D01*
X104425873Y-86925722D01*
X104487695Y-86967963D01*
X104561080Y-86982824D01*
X105348192Y-86982824D01*
X105452371Y-87234335D01*
X105670945Y-87452909D01*
X105956525Y-87571200D01*
X106146830Y-87571200D01*
X106341080Y-87376950D01*
X106341080Y-86548200D01*
X106801080Y-86548200D01*
X106801080Y-87376950D01*
X106995330Y-87571200D01*
X107185635Y-87571200D01*
X107471215Y-87452909D01*
X107689789Y-87234335D01*
X107808080Y-86948755D01*
X107808080Y-86742450D01*
X107613830Y-86548200D01*
X106801080Y-86548200D01*
X106341080Y-86548200D01*
X106312080Y-86548200D01*
X106312080Y-86070200D01*
X106341080Y-86070200D01*
X106341080Y-86050200D01*
X106801080Y-86050200D01*
X106801080Y-86070200D01*
X107613830Y-86070200D01*
X107808080Y-85875950D01*
X107808080Y-85669645D01*
X107689789Y-85384065D01*
X107471215Y-85165491D01*
X107185635Y-85047200D01*
X107116294Y-85047200D01*
X107120964Y-85024140D01*
X107120964Y-84998140D01*
X107533440Y-84998140D01*
X107701438Y-84964723D01*
X107843860Y-84869560D01*
X107925140Y-84788280D01*
X108020303Y-84645858D01*
X108053720Y-84477860D01*
X108053720Y-84325000D01*
X108234056Y-84325000D01*
X108234056Y-85225000D01*
X108246956Y-85293557D01*
X108287473Y-85356522D01*
X108349295Y-85398763D01*
X108422680Y-85413624D01*
X109722680Y-85413624D01*
X109791237Y-85400724D01*
X109854202Y-85360207D01*
X109896443Y-85298385D01*
X109911304Y-85225000D01*
X109911304Y-84325000D01*
X109898404Y-84256443D01*
X109862114Y-84200046D01*
X110769940Y-83292220D01*
X110865103Y-83149798D01*
X110898520Y-82981800D01*
X110898520Y-82052160D01*
X110865103Y-81884162D01*
X110769940Y-81741740D01*
X110399100Y-81370900D01*
X110256678Y-81275737D01*
X110088680Y-81242320D01*
X109100620Y-81242320D01*
X108991145Y-81264096D01*
X108668820Y-81264096D01*
X108600263Y-81276996D01*
X108537298Y-81317513D01*
X108495057Y-81379335D01*
X108480196Y-81452720D01*
X108480196Y-81909920D01*
X108493096Y-81978477D01*
X108533613Y-82041442D01*
X108595435Y-82083683D01*
X108668820Y-82098544D01*
X108991145Y-82098544D01*
X109100620Y-82120320D01*
X109906840Y-82120320D01*
X110020520Y-82234000D01*
X110020520Y-82799960D01*
X108762260Y-84058220D01*
X108710038Y-84136376D01*
X108422680Y-84136376D01*
X108354123Y-84149276D01*
X108291158Y-84189793D01*
X108248917Y-84251615D01*
X108234056Y-84325000D01*
X108053720Y-84325000D01*
X108053720Y-83631000D01*
X108573800Y-83110920D01*
X109100620Y-83110920D01*
X109210095Y-83089144D01*
X109532420Y-83089144D01*
X109600977Y-83076244D01*
X109663942Y-83035727D01*
X109706183Y-82973905D01*
X109721044Y-82900520D01*
X109721044Y-82443320D01*
X109708144Y-82374763D01*
X109667627Y-82311798D01*
X109605805Y-82269557D01*
X109532420Y-82254696D01*
X109210095Y-82254696D01*
X109100620Y-82232920D01*
X108391960Y-82232920D01*
X108237535Y-82263637D01*
X108246760Y-82217260D01*
X108246760Y-80594916D01*
X108480196Y-80691608D01*
X108480196Y-80919320D01*
X108493096Y-80987877D01*
X108533613Y-81050842D01*
X108595435Y-81093083D01*
X108668820Y-81107944D01*
X108991145Y-81107944D01*
X109100620Y-81129720D01*
X110541840Y-81129720D01*
X111321000Y-81908880D01*
X111321000Y-83008240D01*
X110616460Y-83712780D01*
X110521297Y-83855202D01*
X110487880Y-84023200D01*
X110487880Y-84060176D01*
X110426880Y-84060176D01*
X110358323Y-84073076D01*
X110295358Y-84113593D01*
X110253117Y-84175415D01*
X110238256Y-84248800D01*
X110238256Y-85348800D01*
X110251156Y-85417357D01*
X110291673Y-85480322D01*
X110353495Y-85522563D01*
X110426880Y-85537424D01*
X111321656Y-85537424D01*
X111098904Y-85760176D01*
X110426880Y-85760176D01*
X110358323Y-85773076D01*
X110295358Y-85813593D01*
X110253117Y-85875415D01*
X110238256Y-85948800D01*
X110238256Y-86236000D01*
X109911304Y-86236000D01*
X109911304Y-86225000D01*
X109898404Y-86156443D01*
X109857887Y-86093478D01*
X109796065Y-86051237D01*
X109722680Y-86036376D01*
X108422680Y-86036376D01*
X108354123Y-86049276D01*
X108291158Y-86089793D01*
X108248917Y-86151615D01*
X108234056Y-86225000D01*
X108234056Y-87125000D01*
X108246956Y-87193557D01*
X108287473Y-87256522D01*
X108349295Y-87298763D01*
X108422680Y-87313624D01*
X109722680Y-87313624D01*
X109791237Y-87300724D01*
X109854202Y-87260207D01*
X109896443Y-87198385D01*
X109911304Y-87125000D01*
X109911304Y-87114000D01*
X110250524Y-87114000D01*
X110251156Y-87117357D01*
X110291673Y-87180322D01*
X110353495Y-87222563D01*
X110426880Y-87237424D01*
X111426880Y-87237424D01*
X111495437Y-87224524D01*
X111558402Y-87184007D01*
X111600643Y-87122185D01*
X111615504Y-87048800D01*
X111615504Y-86485256D01*
X112049722Y-86051038D01*
X112059356Y-86102237D01*
X112099873Y-86165202D01*
X112161695Y-86207443D01*
X112235080Y-86222304D01*
X113235080Y-86222304D01*
X113303637Y-86209404D01*
X113366602Y-86168887D01*
X113408843Y-86107065D01*
X113423704Y-86033680D01*
X113423704Y-84613680D01*
X113410804Y-84545123D01*
X113370287Y-84482158D01*
X113308465Y-84439917D01*
X113235080Y-84425056D01*
X112235080Y-84425056D01*
X112166523Y-84437956D01*
X112103558Y-84478473D01*
X112061317Y-84540295D01*
X112046456Y-84613680D01*
X112046456Y-84906517D01*
X111988242Y-84918097D01*
X111845820Y-85013260D01*
X111615504Y-85243576D01*
X111615504Y-84248800D01*
X111602604Y-84180243D01*
X111562087Y-84117278D01*
X111500265Y-84075037D01*
X111496621Y-84074299D01*
X111692971Y-83877949D01*
X113632036Y-83877949D01*
X113678120Y-83989482D01*
X113678120Y-84089240D01*
X113711537Y-84257238D01*
X113806700Y-84399660D01*
X113937819Y-84530779D01*
X113931317Y-84540295D01*
X113916456Y-84613680D01*
X113916456Y-86033680D01*
X113929356Y-86102237D01*
X113969873Y-86165202D01*
X114031695Y-86207443D01*
X114105080Y-86222304D01*
X115105080Y-86222304D01*
X115173637Y-86209404D01*
X115236602Y-86168887D01*
X115278843Y-86107065D01*
X115293704Y-86033680D01*
X115293704Y-84613680D01*
X115280804Y-84545123D01*
X115240287Y-84482158D01*
X115178465Y-84439917D01*
X115105080Y-84425056D01*
X115013817Y-84425056D01*
X115010663Y-84409202D01*
X114915500Y-84266780D01*
X114580171Y-83931451D01*
X114602036Y-83878796D01*
X114602204Y-83685851D01*
X114528523Y-83507528D01*
X114392209Y-83370977D01*
X114214016Y-83296984D01*
X114021071Y-83296816D01*
X113842748Y-83370497D01*
X113706197Y-83506811D01*
X113632204Y-83685004D01*
X113632036Y-83877949D01*
X111692971Y-83877949D01*
X112070420Y-83500500D01*
X112165583Y-83358078D01*
X112199000Y-83190080D01*
X112199000Y-82752729D01*
X112560156Y-82752729D01*
X112633837Y-82931052D01*
X112770151Y-83067603D01*
X112948344Y-83141596D01*
X113141289Y-83141764D01*
X113215938Y-83110920D01*
X114256820Y-83110920D01*
X114366295Y-83089144D01*
X114688620Y-83089144D01*
X114757177Y-83076244D01*
X114820142Y-83035727D01*
X114862383Y-82973905D01*
X114877244Y-82900520D01*
X114877244Y-82443320D01*
X114864344Y-82374763D01*
X114823827Y-82311798D01*
X114762005Y-82269557D01*
X114688620Y-82254696D01*
X114366295Y-82254696D01*
X114256820Y-82232920D01*
X113289414Y-82232920D01*
X113142136Y-82171764D01*
X112949191Y-82171596D01*
X112770868Y-82245277D01*
X112634317Y-82381591D01*
X112560324Y-82559784D01*
X112560156Y-82752729D01*
X112199000Y-82752729D01*
X112199000Y-81727040D01*
X112165583Y-81559042D01*
X112070420Y-81416620D01*
X111034100Y-80380300D01*
X110891678Y-80285137D01*
X110723680Y-80251720D01*
X110239648Y-80251720D01*
X110309420Y-80083275D01*
X110309420Y-80008670D01*
X110115170Y-79814420D01*
X109316520Y-79814420D01*
X109316520Y-79928720D01*
X108884720Y-79928720D01*
X108884720Y-79814420D01*
X108086070Y-79814420D01*
X107891820Y-80008670D01*
X107891820Y-80032020D01*
X106925384Y-79065584D01*
X106925384Y-78889680D01*
X106912484Y-78821123D01*
X106905745Y-78810649D01*
X107269336Y-78810649D01*
X107343017Y-78988972D01*
X107479331Y-79125523D01*
X107657524Y-79199516D01*
X107850469Y-79199684D01*
X107958969Y-79154853D01*
X107891820Y-79316965D01*
X107891820Y-79391570D01*
X108086070Y-79585820D01*
X108884720Y-79585820D01*
X108884720Y-79471520D01*
X109316520Y-79471520D01*
X109316520Y-79585820D01*
X110115170Y-79585820D01*
X110309420Y-79391570D01*
X110309420Y-79316965D01*
X110191129Y-79031385D01*
X109972555Y-78812811D01*
X109721044Y-78708632D01*
X109721044Y-78480920D01*
X109708144Y-78412363D01*
X109667627Y-78349398D01*
X109605805Y-78307157D01*
X109532420Y-78292296D01*
X109210095Y-78292296D01*
X109100620Y-78270520D01*
X107949659Y-78270520D01*
X107851316Y-78229684D01*
X107658371Y-78229516D01*
X107480048Y-78303197D01*
X107343497Y-78439511D01*
X107269504Y-78617704D01*
X107269336Y-78810649D01*
X106905745Y-78810649D01*
X106871967Y-78758158D01*
X106810145Y-78715917D01*
X106740760Y-78701866D01*
X106740760Y-78625920D01*
X106707343Y-78457922D01*
X106612180Y-78315500D01*
X106552599Y-78255919D01*
X106567203Y-78234545D01*
X106582064Y-78161160D01*
X106582064Y-77561160D01*
X106569164Y-77492603D01*
X106528647Y-77429638D01*
X106466825Y-77387397D01*
X106393440Y-77372536D01*
X105833440Y-77372536D01*
X105764883Y-77385436D01*
X105701918Y-77425953D01*
X105659677Y-77487775D01*
X105644816Y-77561160D01*
X105644816Y-78161160D01*
X105657716Y-78229717D01*
X105674440Y-78255707D01*
X105674440Y-78437600D01*
X105707857Y-78605598D01*
X105785655Y-78722031D01*
X105735238Y-78754473D01*
X105692997Y-78816295D01*
X105678136Y-78889680D01*
X105678136Y-79819680D01*
X105691036Y-79888237D01*
X105731553Y-79951202D01*
X105793375Y-79993443D01*
X105866760Y-80008304D01*
X106626424Y-80008304D01*
X107368760Y-80750640D01*
X107368760Y-80891768D01*
X107264969Y-80787797D01*
X107086776Y-80713804D01*
X106893831Y-80713636D01*
X106715508Y-80787317D01*
X106697353Y-80805440D01*
X106437463Y-80805440D01*
X106386585Y-80770677D01*
X106313200Y-80755816D01*
X105773200Y-80755816D01*
X105704643Y-80768716D01*
X105641678Y-80809233D01*
X105613023Y-80851172D01*
X105588407Y-80812918D01*
X105526585Y-80770677D01*
X105453200Y-80755816D01*
X104913200Y-80755816D01*
X104844643Y-80768716D01*
X104787572Y-80805440D01*
X104756800Y-80805440D01*
X104756800Y-80786200D01*
X105052180Y-80490820D01*
X105147343Y-80348398D01*
X105180760Y-80180400D01*
X105180760Y-80007551D01*
X105245317Y-79995404D01*
X105308282Y-79954887D01*
X105350523Y-79893065D01*
X105365384Y-79819680D01*
X105365384Y-78889680D01*
X105352484Y-78821123D01*
X105311967Y-78758158D01*
X105250145Y-78715917D01*
X105180760Y-78701866D01*
X105180760Y-78447080D01*
X105278056Y-78349784D01*
X105423440Y-78349784D01*
X105491997Y-78336884D01*
X105554962Y-78296367D01*
X105597203Y-78234545D01*
X105612064Y-78161160D01*
X105612064Y-77561160D01*
X105599164Y-77492603D01*
X105582440Y-77466613D01*
X105582440Y-75784800D01*
X106727280Y-74639960D01*
X107491240Y-74639960D01*
X110454860Y-77603580D01*
X110454860Y-77670660D01*
X110488277Y-77838658D01*
X110583440Y-77981080D01*
X110842520Y-78240160D01*
X110984942Y-78335323D01*
X111152940Y-78368740D01*
X111910280Y-78368740D01*
X111910280Y-79339440D01*
X111943697Y-79507438D01*
X112038860Y-79649860D01*
X112319220Y-79930220D01*
X112319220Y-80551020D01*
X112352637Y-80719018D01*
X112362039Y-80733088D01*
X112362036Y-80735969D01*
X112435717Y-80914292D01*
X112572031Y-81050843D01*
X112750224Y-81124836D01*
X112943169Y-81125004D01*
X113121492Y-81051323D01*
X113258043Y-80915009D01*
X113332036Y-80736816D01*
X113332204Y-80543871D01*
X113298426Y-80462120D01*
X113636396Y-80462120D01*
X113636396Y-80919320D01*
X113649296Y-80987877D01*
X113689813Y-81050842D01*
X113751635Y-81093083D01*
X113825020Y-81107944D01*
X114147345Y-81107944D01*
X114256820Y-81129720D01*
X115295680Y-81129720D01*
X115463678Y-81096303D01*
X115606100Y-81001140D01*
X115985520Y-80621720D01*
X116900436Y-80621720D01*
X116778991Y-80743165D01*
X116674812Y-80994676D01*
X116019700Y-80994676D01*
X115951143Y-81007576D01*
X115888178Y-81048093D01*
X115845937Y-81109915D01*
X115831076Y-81183300D01*
X115831076Y-82113300D01*
X115843976Y-82181857D01*
X115884493Y-82244822D01*
X115946315Y-82287063D01*
X116019700Y-82301924D01*
X116085700Y-82301924D01*
X116085700Y-82661420D01*
X116119117Y-82829418D01*
X116214280Y-82971840D01*
X116577720Y-83335280D01*
X115821040Y-83335280D01*
X115821040Y-82113120D01*
X115787623Y-81945122D01*
X115692460Y-81802700D01*
X115260660Y-81370900D01*
X115118238Y-81275737D01*
X114950240Y-81242320D01*
X114256820Y-81242320D01*
X114147345Y-81264096D01*
X113825020Y-81264096D01*
X113756463Y-81276996D01*
X113693498Y-81317513D01*
X113651257Y-81379335D01*
X113636396Y-81452720D01*
X113636396Y-81909920D01*
X113649296Y-81978477D01*
X113689813Y-82041442D01*
X113751635Y-82083683D01*
X113825020Y-82098544D01*
X114147345Y-82098544D01*
X114256820Y-82120320D01*
X114768400Y-82120320D01*
X114943040Y-82294960D01*
X114943040Y-83576160D01*
X114976457Y-83744158D01*
X115071620Y-83886580D01*
X115269740Y-84084700D01*
X115412162Y-84179863D01*
X115580160Y-84213280D01*
X115781375Y-84213280D01*
X115727678Y-84247833D01*
X115685437Y-84309655D01*
X115670576Y-84383040D01*
X115670576Y-86183040D01*
X115683476Y-86251597D01*
X115723993Y-86314562D01*
X115785815Y-86356803D01*
X115859200Y-86371664D01*
X116220200Y-86371664D01*
X116220200Y-87169800D01*
X116253617Y-87337798D01*
X116348780Y-87480220D01*
X116694680Y-87826120D01*
X116837102Y-87921283D01*
X117005100Y-87954700D01*
X125615700Y-87954700D01*
X125783698Y-87921283D01*
X125926120Y-87826120D01*
X126480980Y-87271260D01*
X126576143Y-87128838D01*
X126609561Y-86960840D01*
X126609560Y-86960835D01*
X126609560Y-86251344D01*
X127270560Y-86251344D01*
X127304988Y-86244866D01*
X127411851Y-86502855D01*
X127630425Y-86721429D01*
X127916005Y-86839720D01*
X128737310Y-86839720D01*
X128931560Y-86645470D01*
X128931560Y-85501720D01*
X129409560Y-85501720D01*
X129409560Y-86645470D01*
X129603810Y-86839720D01*
X130425115Y-86839720D01*
X130710695Y-86721429D01*
X130929269Y-86502855D01*
X131047560Y-86217275D01*
X131047560Y-85695970D01*
X130853310Y-85501720D01*
X129409560Y-85501720D01*
X128931560Y-85501720D01*
X128911560Y-85501720D01*
X128911560Y-85466384D01*
X136001414Y-85466384D01*
X136088895Y-85749302D01*
X136727858Y-85941182D01*
X137391612Y-85873937D01*
X137692505Y-85749302D01*
X137779986Y-85466384D01*
X136890700Y-84577097D01*
X136001414Y-85466384D01*
X128911560Y-85466384D01*
X128911560Y-85023720D01*
X128931560Y-85023720D01*
X128931560Y-83879970D01*
X129409560Y-83879970D01*
X129409560Y-85023720D01*
X130853310Y-85023720D01*
X131047560Y-84829470D01*
X131047560Y-84308165D01*
X130929269Y-84022585D01*
X130710695Y-83804011D01*
X130425115Y-83685720D01*
X129603810Y-83685720D01*
X129409560Y-83879970D01*
X128931560Y-83879970D01*
X128737310Y-83685720D01*
X127916005Y-83685720D01*
X127630425Y-83804011D01*
X127411851Y-84022585D01*
X127304800Y-84281030D01*
X127270560Y-84274096D01*
X126736560Y-84274096D01*
X126736560Y-83499584D01*
X128288545Y-81947600D01*
X132239256Y-81947600D01*
X132824700Y-82533045D01*
X132824700Y-83298995D01*
X132776900Y-83318746D01*
X132471418Y-83623695D01*
X132305889Y-84022333D01*
X132305512Y-84453973D01*
X132470346Y-84852900D01*
X132775295Y-85158382D01*
X133173933Y-85323911D01*
X133605573Y-85324288D01*
X134004500Y-85159454D01*
X134309982Y-84854505D01*
X134400336Y-84636908D01*
X135286313Y-83750931D01*
X135188618Y-84076258D01*
X135255863Y-84740012D01*
X135380498Y-85040905D01*
X135663416Y-85128386D01*
X136552703Y-84239100D01*
X137228697Y-84239100D01*
X138117984Y-85128386D01*
X138400902Y-85040905D01*
X138592782Y-84401942D01*
X138591853Y-84392770D01*
X142168216Y-84392770D01*
X142168216Y-85916770D01*
X142181116Y-85985327D01*
X142221633Y-86048292D01*
X142283455Y-86090533D01*
X142356840Y-86105394D01*
X143880840Y-86105394D01*
X143949397Y-86092494D01*
X144012362Y-86051977D01*
X144054603Y-85990155D01*
X144069464Y-85916770D01*
X144069464Y-84392770D01*
X164164616Y-84392770D01*
X164164616Y-85916770D01*
X164177516Y-85985327D01*
X164218033Y-86048292D01*
X164279855Y-86090533D01*
X164353240Y-86105394D01*
X165877240Y-86105394D01*
X165945797Y-86092494D01*
X166008762Y-86051977D01*
X166051003Y-85990155D01*
X166065864Y-85916770D01*
X166065864Y-84392770D01*
X166052964Y-84324213D01*
X166012447Y-84261248D01*
X165950625Y-84219007D01*
X165877240Y-84204146D01*
X164353240Y-84204146D01*
X164284683Y-84217046D01*
X164221718Y-84257563D01*
X164179477Y-84319385D01*
X164164616Y-84392770D01*
X144069464Y-84392770D01*
X144056564Y-84324213D01*
X144016047Y-84261248D01*
X143954225Y-84219007D01*
X143880840Y-84204146D01*
X142356840Y-84204146D01*
X142288283Y-84217046D01*
X142225318Y-84257563D01*
X142183077Y-84319385D01*
X142168216Y-84392770D01*
X138591853Y-84392770D01*
X138525537Y-83738188D01*
X138400902Y-83437295D01*
X138117984Y-83349814D01*
X137228697Y-84239100D01*
X136552703Y-84239100D01*
X136538560Y-84224958D01*
X136876558Y-83886960D01*
X136890700Y-83901103D01*
X137779986Y-83011816D01*
X137692505Y-82728898D01*
X137053542Y-82537018D01*
X136389788Y-82604263D01*
X136088895Y-82728898D01*
X136001414Y-83011814D01*
X135937601Y-82948001D01*
X135958160Y-82844640D01*
X135958160Y-82393790D01*
X142168216Y-82393790D01*
X142168216Y-83917790D01*
X142181116Y-83986347D01*
X142221633Y-84049312D01*
X142283455Y-84091553D01*
X142356840Y-84106414D01*
X143880840Y-84106414D01*
X143949397Y-84093514D01*
X144012362Y-84052997D01*
X144054603Y-83991175D01*
X144069464Y-83917790D01*
X144069464Y-82393790D01*
X164164616Y-82393790D01*
X164164616Y-83917790D01*
X164177516Y-83986347D01*
X164218033Y-84049312D01*
X164279855Y-84091553D01*
X164353240Y-84106414D01*
X165877240Y-84106414D01*
X165945797Y-84093514D01*
X166008762Y-84052997D01*
X166051003Y-83991175D01*
X166065864Y-83917790D01*
X166065864Y-82393790D01*
X166052964Y-82325233D01*
X166012447Y-82262268D01*
X165950625Y-82220027D01*
X165877240Y-82205166D01*
X164353240Y-82205166D01*
X164284683Y-82218066D01*
X164221718Y-82258583D01*
X164179477Y-82320405D01*
X164164616Y-82393790D01*
X144069464Y-82393790D01*
X144056564Y-82325233D01*
X144016047Y-82262268D01*
X143954225Y-82220027D01*
X143880840Y-82205166D01*
X142356840Y-82205166D01*
X142288283Y-82218066D01*
X142225318Y-82258583D01*
X142183077Y-82320405D01*
X142168216Y-82393790D01*
X135958160Y-82393790D01*
X135958160Y-80394810D01*
X142168216Y-80394810D01*
X142168216Y-81918810D01*
X142181116Y-81987367D01*
X142221633Y-82050332D01*
X142283455Y-82092573D01*
X142356840Y-82107434D01*
X143880840Y-82107434D01*
X143949397Y-82094534D01*
X144012362Y-82054017D01*
X144054603Y-81992195D01*
X144069464Y-81918810D01*
X144069464Y-80394810D01*
X164164616Y-80394810D01*
X164164616Y-81918810D01*
X164177516Y-81987367D01*
X164218033Y-82050332D01*
X164279855Y-82092573D01*
X164353240Y-82107434D01*
X165877240Y-82107434D01*
X165945797Y-82094534D01*
X166008762Y-82054017D01*
X166051003Y-81992195D01*
X166065864Y-81918810D01*
X166065864Y-80394810D01*
X166052964Y-80326253D01*
X166012447Y-80263288D01*
X165950625Y-80221047D01*
X165877240Y-80206186D01*
X164353240Y-80206186D01*
X164284683Y-80219086D01*
X164221718Y-80259603D01*
X164179477Y-80321425D01*
X164164616Y-80394810D01*
X144069464Y-80394810D01*
X144056564Y-80326253D01*
X144016047Y-80263288D01*
X143954225Y-80221047D01*
X143880840Y-80206186D01*
X142356840Y-80206186D01*
X142288283Y-80219086D01*
X142225318Y-80259603D01*
X142183077Y-80321425D01*
X142168216Y-80394810D01*
X135958160Y-80394810D01*
X135958160Y-78395830D01*
X142168216Y-78395830D01*
X142168216Y-79919830D01*
X142181116Y-79988387D01*
X142221633Y-80051352D01*
X142283455Y-80093593D01*
X142356840Y-80108454D01*
X143880840Y-80108454D01*
X143949397Y-80095554D01*
X144012362Y-80055037D01*
X144054603Y-79993215D01*
X144069464Y-79919830D01*
X144069464Y-78395830D01*
X164164616Y-78395830D01*
X164164616Y-79919830D01*
X164177516Y-79988387D01*
X164218033Y-80051352D01*
X164279855Y-80093593D01*
X164353240Y-80108454D01*
X165877240Y-80108454D01*
X165945797Y-80095554D01*
X166008762Y-80055037D01*
X166051003Y-79993215D01*
X166065864Y-79919830D01*
X166065864Y-78395830D01*
X166052964Y-78327273D01*
X166012447Y-78264308D01*
X165950625Y-78222067D01*
X165877240Y-78207206D01*
X164353240Y-78207206D01*
X164284683Y-78220106D01*
X164221718Y-78260623D01*
X164179477Y-78322445D01*
X164164616Y-78395830D01*
X144069464Y-78395830D01*
X144056564Y-78327273D01*
X144016047Y-78264308D01*
X143954225Y-78222067D01*
X143880840Y-78207206D01*
X142356840Y-78207206D01*
X142288283Y-78220106D01*
X142225318Y-78260623D01*
X142183077Y-78322445D01*
X142168216Y-78395830D01*
X135958160Y-78395830D01*
X135958160Y-76396850D01*
X142168216Y-76396850D01*
X142168216Y-77920850D01*
X142181116Y-77989407D01*
X142221633Y-78052372D01*
X142283455Y-78094613D01*
X142356840Y-78109474D01*
X143880840Y-78109474D01*
X143949397Y-78096574D01*
X144012362Y-78056057D01*
X144054603Y-77994235D01*
X144069464Y-77920850D01*
X144069464Y-76396850D01*
X164164616Y-76396850D01*
X164164616Y-77920850D01*
X164177516Y-77989407D01*
X164218033Y-78052372D01*
X164279855Y-78094613D01*
X164353240Y-78109474D01*
X165877240Y-78109474D01*
X165945797Y-78096574D01*
X166008762Y-78056057D01*
X166051003Y-77994235D01*
X166065864Y-77920850D01*
X166065864Y-76396850D01*
X166052964Y-76328293D01*
X166012447Y-76265328D01*
X165950625Y-76223087D01*
X165877240Y-76208226D01*
X164353240Y-76208226D01*
X164284683Y-76221126D01*
X164221718Y-76261643D01*
X164179477Y-76323465D01*
X164164616Y-76396850D01*
X144069464Y-76396850D01*
X144056564Y-76328293D01*
X144016047Y-76265328D01*
X143954225Y-76223087D01*
X143880840Y-76208226D01*
X142356840Y-76208226D01*
X142288283Y-76221126D01*
X142225318Y-76261643D01*
X142183077Y-76323465D01*
X142168216Y-76396850D01*
X135958160Y-76396850D01*
X135958160Y-74397870D01*
X142168216Y-74397870D01*
X142168216Y-75921870D01*
X142181116Y-75990427D01*
X142221633Y-76053392D01*
X142283455Y-76095633D01*
X142356840Y-76110494D01*
X143880840Y-76110494D01*
X143949397Y-76097594D01*
X144012362Y-76057077D01*
X144054603Y-75995255D01*
X144069464Y-75921870D01*
X144069464Y-74397870D01*
X164164616Y-74397870D01*
X164164616Y-75921870D01*
X164177516Y-75990427D01*
X164218033Y-76053392D01*
X164279855Y-76095633D01*
X164353240Y-76110494D01*
X165877240Y-76110494D01*
X165945797Y-76097594D01*
X166008762Y-76057077D01*
X166051003Y-75995255D01*
X166065864Y-75921870D01*
X166065864Y-74397870D01*
X166052964Y-74329313D01*
X166012447Y-74266348D01*
X165950625Y-74224107D01*
X165877240Y-74209246D01*
X164353240Y-74209246D01*
X164284683Y-74222146D01*
X164221718Y-74262663D01*
X164179477Y-74324485D01*
X164164616Y-74397870D01*
X144069464Y-74397870D01*
X144056564Y-74329313D01*
X144016047Y-74266348D01*
X143954225Y-74224107D01*
X143880840Y-74209246D01*
X142356840Y-74209246D01*
X142288283Y-74222146D01*
X142225318Y-74262663D01*
X142183077Y-74324485D01*
X142168216Y-74397870D01*
X135958160Y-74397870D01*
X135958160Y-74138284D01*
X137697554Y-72398890D01*
X142168216Y-72398890D01*
X142168216Y-73922890D01*
X142181116Y-73991447D01*
X142221633Y-74054412D01*
X142283455Y-74096653D01*
X142356840Y-74111514D01*
X143880840Y-74111514D01*
X143949397Y-74098614D01*
X144012362Y-74058097D01*
X144054603Y-73996275D01*
X144069464Y-73922890D01*
X144069464Y-72398890D01*
X164164616Y-72398890D01*
X164164616Y-73922890D01*
X164177516Y-73991447D01*
X164218033Y-74054412D01*
X164279855Y-74096653D01*
X164353240Y-74111514D01*
X165877240Y-74111514D01*
X165945797Y-74098614D01*
X166008762Y-74058097D01*
X166051003Y-73996275D01*
X166065864Y-73922890D01*
X166065864Y-72398890D01*
X166052964Y-72330333D01*
X166012447Y-72267368D01*
X165950625Y-72225127D01*
X165877240Y-72210266D01*
X164353240Y-72210266D01*
X164284683Y-72223166D01*
X164221718Y-72263683D01*
X164179477Y-72325505D01*
X164164616Y-72398890D01*
X144069464Y-72398890D01*
X144056564Y-72330333D01*
X144016047Y-72267368D01*
X143954225Y-72225127D01*
X143880840Y-72210266D01*
X142356840Y-72210266D01*
X142288283Y-72223166D01*
X142225318Y-72263683D01*
X142183077Y-72325505D01*
X142168216Y-72398890D01*
X137697554Y-72398890D01*
X138368535Y-71727910D01*
X142168216Y-71727910D01*
X142168216Y-71923910D01*
X142181116Y-71992467D01*
X142221633Y-72055432D01*
X142283455Y-72097673D01*
X142356840Y-72112534D01*
X143880840Y-72112534D01*
X143949397Y-72099634D01*
X144012362Y-72059117D01*
X144054603Y-71997295D01*
X144069464Y-71923910D01*
X144069464Y-70399910D01*
X164164616Y-70399910D01*
X164164616Y-71923910D01*
X164177516Y-71992467D01*
X164218033Y-72055432D01*
X164279855Y-72097673D01*
X164353240Y-72112534D01*
X165877240Y-72112534D01*
X165945797Y-72099634D01*
X166008762Y-72059117D01*
X166051003Y-71997295D01*
X166065864Y-71923910D01*
X166065864Y-71600910D01*
X169303470Y-71600910D01*
X170871300Y-73168740D01*
X170871300Y-91744800D01*
X170904717Y-91912798D01*
X170999880Y-92055220D01*
X172341000Y-93396340D01*
X172483422Y-93491503D01*
X172651420Y-93524920D01*
X173174268Y-93524920D01*
X173369947Y-93817776D01*
X173705726Y-94042135D01*
X174101803Y-94120920D01*
X174142357Y-94120920D01*
X174538434Y-94042135D01*
X174874213Y-93817776D01*
X175098572Y-93481997D01*
X175177357Y-93085920D01*
X175098572Y-92689843D01*
X174874213Y-92354064D01*
X174538434Y-92129705D01*
X174142357Y-92050920D01*
X174101803Y-92050920D01*
X173705726Y-92129705D01*
X173369947Y-92354064D01*
X173174268Y-92646920D01*
X172833260Y-92646920D01*
X171749300Y-91562960D01*
X171749300Y-90545920D01*
X173066803Y-90545920D01*
X173145588Y-90941997D01*
X173369947Y-91277776D01*
X173705726Y-91502135D01*
X174101803Y-91580920D01*
X174142357Y-91580920D01*
X174538434Y-91502135D01*
X174874213Y-91277776D01*
X175098572Y-90941997D01*
X175177357Y-90545920D01*
X175098572Y-90149843D01*
X174874213Y-89814064D01*
X174538434Y-89589705D01*
X174142357Y-89510920D01*
X174101803Y-89510920D01*
X173705726Y-89589705D01*
X173369947Y-89814064D01*
X173145588Y-90149843D01*
X173066803Y-90545920D01*
X171749300Y-90545920D01*
X171749300Y-88005920D01*
X173066803Y-88005920D01*
X173145588Y-88401997D01*
X173369947Y-88737776D01*
X173705726Y-88962135D01*
X174101803Y-89040920D01*
X174142357Y-89040920D01*
X174538434Y-88962135D01*
X174874213Y-88737776D01*
X175098572Y-88401997D01*
X175177357Y-88005920D01*
X175098572Y-87609843D01*
X174874213Y-87274064D01*
X174538434Y-87049705D01*
X174142357Y-86970920D01*
X174101803Y-86970920D01*
X173705726Y-87049705D01*
X173369947Y-87274064D01*
X173145588Y-87609843D01*
X173066803Y-88005920D01*
X171749300Y-88005920D01*
X171749300Y-83359170D01*
X172495080Y-83359170D01*
X172495080Y-83930475D01*
X172613371Y-84216055D01*
X172831945Y-84434629D01*
X173117525Y-84552920D01*
X173641050Y-84552920D01*
X173369947Y-84734064D01*
X173145588Y-85069843D01*
X173066803Y-85465920D01*
X173145588Y-85861997D01*
X173369947Y-86197776D01*
X173705726Y-86422135D01*
X174101803Y-86500920D01*
X174142357Y-86500920D01*
X174538434Y-86422135D01*
X174874213Y-86197776D01*
X175098572Y-85861997D01*
X175177357Y-85465920D01*
X175098572Y-85069843D01*
X174874213Y-84734064D01*
X174603110Y-84552920D01*
X175126635Y-84552920D01*
X175412215Y-84434629D01*
X175630789Y-84216055D01*
X175749080Y-83930475D01*
X175749080Y-83359170D01*
X175554830Y-83164920D01*
X174361080Y-83164920D01*
X174361080Y-83184920D01*
X173883080Y-83184920D01*
X173883080Y-83164920D01*
X172689330Y-83164920D01*
X172495080Y-83359170D01*
X171749300Y-83359170D01*
X171749300Y-81921365D01*
X172495080Y-81921365D01*
X172495080Y-82492670D01*
X172689330Y-82686920D01*
X173883080Y-82686920D01*
X173883080Y-81493170D01*
X174361080Y-81493170D01*
X174361080Y-82686920D01*
X175554830Y-82686920D01*
X175749080Y-82492670D01*
X175749080Y-81921365D01*
X175630789Y-81635785D01*
X175412215Y-81417211D01*
X175126635Y-81298920D01*
X174555330Y-81298920D01*
X174361080Y-81493170D01*
X173883080Y-81493170D01*
X173688830Y-81298920D01*
X173117525Y-81298920D01*
X172831945Y-81417211D01*
X172613371Y-81635785D01*
X172495080Y-81921365D01*
X171749300Y-81921365D01*
X171749300Y-77195815D01*
X172564852Y-77195815D01*
X172674514Y-77460607D01*
X173072327Y-77955334D01*
X173629182Y-78260165D01*
X173877998Y-78123118D01*
X173877998Y-78256507D01*
X173700646Y-78291785D01*
X173364867Y-78516144D01*
X173140508Y-78851923D01*
X173061723Y-79248000D01*
X173140508Y-79644077D01*
X173364867Y-79979856D01*
X173700646Y-80204215D01*
X174096723Y-80283000D01*
X174137277Y-80283000D01*
X174533354Y-80204215D01*
X174869133Y-79979856D01*
X175093492Y-79644077D01*
X175172277Y-79248000D01*
X175093492Y-78851923D01*
X174869133Y-78516144D01*
X174533354Y-78291785D01*
X174356002Y-78256507D01*
X174356002Y-78123118D01*
X174604818Y-78260165D01*
X175161673Y-77955334D01*
X175559486Y-77460607D01*
X175669148Y-77195815D01*
X175529675Y-76947000D01*
X174356000Y-76947000D01*
X174356000Y-76967000D01*
X173878000Y-76967000D01*
X173878000Y-76947000D01*
X172704325Y-76947000D01*
X172564852Y-77195815D01*
X171749300Y-77195815D01*
X171749300Y-76220185D01*
X172564852Y-76220185D01*
X172704325Y-76469000D01*
X173878000Y-76469000D01*
X173878000Y-76449000D01*
X174356000Y-76449000D01*
X174356000Y-76469000D01*
X175529675Y-76469000D01*
X175669148Y-76220185D01*
X175559486Y-75955393D01*
X175161673Y-75460666D01*
X174604818Y-75155835D01*
X174356002Y-75292882D01*
X174356002Y-75159493D01*
X174533354Y-75124215D01*
X174869133Y-74899856D01*
X175093492Y-74564077D01*
X175172277Y-74168000D01*
X175093492Y-73771923D01*
X174869133Y-73436144D01*
X174533354Y-73211785D01*
X174137277Y-73133000D01*
X174096723Y-73133000D01*
X173700646Y-73211785D01*
X173364867Y-73436144D01*
X173140508Y-73771923D01*
X173061723Y-74168000D01*
X173140508Y-74564077D01*
X173364867Y-74899856D01*
X173700646Y-75124215D01*
X173877998Y-75159493D01*
X173877998Y-75292882D01*
X173629182Y-75155835D01*
X173072327Y-75460666D01*
X172674514Y-75955393D01*
X172564852Y-76220185D01*
X171749300Y-76220185D01*
X171749300Y-72986900D01*
X171715883Y-72818902D01*
X171620720Y-72676480D01*
X169795730Y-70851490D01*
X169685745Y-70778000D01*
X173078376Y-70778000D01*
X173078376Y-72478000D01*
X173091276Y-72546557D01*
X173131793Y-72609522D01*
X173193615Y-72651763D01*
X173267000Y-72666624D01*
X174967000Y-72666624D01*
X175035557Y-72653724D01*
X175098522Y-72613207D01*
X175140763Y-72551385D01*
X175155624Y-72478000D01*
X175155624Y-70778000D01*
X175142724Y-70709443D01*
X175102207Y-70646478D01*
X175040385Y-70604237D01*
X174967000Y-70589376D01*
X173267000Y-70589376D01*
X173198443Y-70602276D01*
X173135478Y-70642793D01*
X173093237Y-70704615D01*
X173078376Y-70778000D01*
X169685745Y-70778000D01*
X169653308Y-70756327D01*
X169485310Y-70722910D01*
X166065864Y-70722910D01*
X166065864Y-70399910D01*
X166052964Y-70331353D01*
X166012447Y-70268388D01*
X165950625Y-70226147D01*
X165877240Y-70211286D01*
X164353240Y-70211286D01*
X164284683Y-70224186D01*
X164221718Y-70264703D01*
X164179477Y-70326525D01*
X164164616Y-70399910D01*
X144069464Y-70399910D01*
X144056564Y-70331353D01*
X144016047Y-70268388D01*
X143954225Y-70226147D01*
X143880840Y-70211286D01*
X142356840Y-70211286D01*
X142288283Y-70224186D01*
X142225318Y-70264703D01*
X142183077Y-70326525D01*
X142168216Y-70399910D01*
X142168216Y-70595910D01*
X138134090Y-70595910D01*
X137917491Y-70638994D01*
X137733868Y-70761687D01*
X134991938Y-73503618D01*
X134869244Y-73687241D01*
X134826160Y-73903840D01*
X134826160Y-82610195D01*
X134061273Y-83375083D01*
X134006105Y-83319818D01*
X133956700Y-83299303D01*
X133956700Y-82298600D01*
X133913616Y-82082001D01*
X133891740Y-82049262D01*
X133790923Y-81898378D01*
X132873922Y-80981378D01*
X132690299Y-80858684D01*
X132473700Y-80815600D01*
X128054100Y-80815600D01*
X127837501Y-80858684D01*
X127653878Y-80981377D01*
X125770338Y-82864918D01*
X125647644Y-83048541D01*
X125604560Y-83265140D01*
X125604560Y-84274096D01*
X125070560Y-84274096D01*
X125002003Y-84286996D01*
X124939038Y-84327513D01*
X124896797Y-84389335D01*
X124881936Y-84462720D01*
X124881936Y-86062720D01*
X124894836Y-86131277D01*
X124935353Y-86194242D01*
X124997175Y-86236483D01*
X125070560Y-86251344D01*
X125731560Y-86251344D01*
X125731560Y-86779000D01*
X125433860Y-87076700D01*
X117186940Y-87076700D01*
X117098200Y-86987960D01*
X117098200Y-86371664D01*
X117459200Y-86371664D01*
X117527757Y-86358764D01*
X117590722Y-86318247D01*
X117632963Y-86256425D01*
X117647824Y-86183040D01*
X117647824Y-84887776D01*
X117795580Y-84740020D01*
X117890743Y-84597598D01*
X117924160Y-84429600D01*
X117924160Y-83621880D01*
X117890743Y-83453882D01*
X117795580Y-83311460D01*
X117374420Y-82890300D01*
X117509450Y-82890300D01*
X117703700Y-82696050D01*
X117703700Y-81880800D01*
X117683700Y-81880800D01*
X117683700Y-81415800D01*
X117703700Y-81415800D01*
X117703700Y-81389300D01*
X118181700Y-81389300D01*
X118181700Y-81415800D01*
X118201700Y-81415800D01*
X118201700Y-81880800D01*
X118181700Y-81880800D01*
X118181700Y-82696050D01*
X118375950Y-82890300D01*
X118602255Y-82890300D01*
X118887835Y-82772009D01*
X119020200Y-82639644D01*
X119020200Y-84194416D01*
X118659200Y-84194416D01*
X118590643Y-84207316D01*
X118527678Y-84247833D01*
X118485437Y-84309655D01*
X118470576Y-84383040D01*
X118470576Y-86183040D01*
X118483476Y-86251597D01*
X118523993Y-86314562D01*
X118585815Y-86356803D01*
X118659200Y-86371664D01*
X120259200Y-86371664D01*
X120327757Y-86358764D01*
X120390722Y-86318247D01*
X120432963Y-86256425D01*
X120447824Y-86183040D01*
X120447824Y-85722040D01*
X120758616Y-85722040D01*
X120758616Y-85722080D01*
X120771516Y-85790637D01*
X120812033Y-85853602D01*
X120873855Y-85895843D01*
X120947240Y-85910704D01*
X122097240Y-85910704D01*
X122165797Y-85897804D01*
X122228762Y-85857287D01*
X122271003Y-85795465D01*
X122285864Y-85722080D01*
X122285864Y-84722080D01*
X122272964Y-84653523D01*
X122232447Y-84590558D01*
X122170625Y-84548317D01*
X122097240Y-84533456D01*
X120947240Y-84533456D01*
X120878683Y-84546356D01*
X120815718Y-84586873D01*
X120773477Y-84648695D01*
X120758616Y-84722080D01*
X120758616Y-84844040D01*
X120447824Y-84844040D01*
X120447824Y-84383040D01*
X120434924Y-84314483D01*
X120394407Y-84251518D01*
X120332585Y-84209277D01*
X120259200Y-84194416D01*
X119898200Y-84194416D01*
X119898200Y-80769920D01*
X119864783Y-80601922D01*
X119769620Y-80459500D01*
X119182420Y-79872300D01*
X119039998Y-79777137D01*
X118872000Y-79743720D01*
X115803680Y-79743720D01*
X115635682Y-79777137D01*
X115493260Y-79872300D01*
X115113840Y-80251720D01*
X114256820Y-80251720D01*
X114147345Y-80273496D01*
X113825020Y-80273496D01*
X113756463Y-80286396D01*
X113693498Y-80326913D01*
X113651257Y-80388735D01*
X113636396Y-80462120D01*
X113298426Y-80462120D01*
X113258523Y-80365548D01*
X113197220Y-80304138D01*
X113197220Y-80139120D01*
X114256820Y-80139120D01*
X114366295Y-80117344D01*
X114688620Y-80117344D01*
X114757177Y-80104444D01*
X114820142Y-80063927D01*
X114862383Y-80002105D01*
X114877244Y-79928720D01*
X114877244Y-79471520D01*
X114864344Y-79402963D01*
X114823827Y-79339998D01*
X114762005Y-79297757D01*
X114688620Y-79282896D01*
X114366295Y-79282896D01*
X114256820Y-79261120D01*
X112891800Y-79261120D01*
X112788280Y-79157600D01*
X112788280Y-78286840D01*
X113711260Y-77363860D01*
X113806423Y-77221438D01*
X113839840Y-77053440D01*
X113839840Y-75846210D01*
X114628000Y-75846210D01*
X114628000Y-77067515D01*
X114746291Y-77353095D01*
X114964865Y-77571669D01*
X115250445Y-77689960D01*
X115771750Y-77689960D01*
X115966000Y-77495710D01*
X115966000Y-75651960D01*
X116444000Y-75651960D01*
X116444000Y-77495710D01*
X116638250Y-77689960D01*
X117159555Y-77689960D01*
X117445135Y-77571669D01*
X117663709Y-77353095D01*
X117782000Y-77067515D01*
X117782000Y-75846210D01*
X117587750Y-75651960D01*
X116444000Y-75651960D01*
X115966000Y-75651960D01*
X114822250Y-75651960D01*
X114628000Y-75846210D01*
X113839840Y-75846210D01*
X113839840Y-73758405D01*
X114628000Y-73758405D01*
X114628000Y-74979710D01*
X114822250Y-75173960D01*
X115966000Y-75173960D01*
X115966000Y-73330210D01*
X116444000Y-73330210D01*
X116444000Y-75173960D01*
X117587750Y-75173960D01*
X117782000Y-74979710D01*
X117782000Y-73758405D01*
X117663709Y-73472825D01*
X117445135Y-73254251D01*
X117159555Y-73135960D01*
X116638250Y-73135960D01*
X116444000Y-73330210D01*
X115966000Y-73330210D01*
X115771750Y-73135960D01*
X115250445Y-73135960D01*
X114964865Y-73254251D01*
X114746291Y-73472825D01*
X114628000Y-73758405D01*
X113839840Y-73758405D01*
X113839840Y-71451960D01*
X115216376Y-71451960D01*
X115216376Y-72512960D01*
X115229276Y-72581517D01*
X115269793Y-72644482D01*
X115331615Y-72686723D01*
X115405000Y-72701584D01*
X117005000Y-72701584D01*
X117073557Y-72688684D01*
X117136522Y-72648167D01*
X117178763Y-72586345D01*
X117193624Y-72512960D01*
X117193624Y-71451960D01*
X117983360Y-71451960D01*
X118151358Y-71418543D01*
X118293780Y-71323380D01*
X118567320Y-71049840D01*
X119568764Y-71049840D01*
X119358025Y-71137131D01*
X119139451Y-71355705D01*
X119021160Y-71641285D01*
X119021160Y-71937590D01*
X119215410Y-72131840D01*
X120294160Y-72131840D01*
X120294160Y-72111840D01*
X120772160Y-72111840D01*
X120772160Y-72131840D01*
X120792160Y-72131840D01*
X120792160Y-72609840D01*
X120772160Y-72609840D01*
X120772160Y-72629840D01*
X120294160Y-72629840D01*
X120294160Y-72609840D01*
X119215410Y-72609840D01*
X119021160Y-72804090D01*
X119021160Y-73100395D01*
X119139451Y-73385975D01*
X119358025Y-73604549D01*
X119643605Y-73722840D01*
X119996800Y-73722840D01*
X119354060Y-74365580D01*
X119258897Y-74508002D01*
X119225480Y-74676000D01*
X119225480Y-77501520D01*
X118161840Y-78565160D01*
X116005840Y-78565160D01*
X115839780Y-78399100D01*
X115697358Y-78303937D01*
X115529360Y-78270520D01*
X114256820Y-78270520D01*
X114147345Y-78292296D01*
X113825020Y-78292296D01*
X113756463Y-78305196D01*
X113693498Y-78345713D01*
X113651257Y-78407535D01*
X113636396Y-78480920D01*
X113636396Y-78938120D01*
X113649296Y-79006677D01*
X113689813Y-79069642D01*
X113751635Y-79111883D01*
X113825020Y-79126744D01*
X114147345Y-79126744D01*
X114256820Y-79148520D01*
X115347520Y-79148520D01*
X115513580Y-79314580D01*
X115656002Y-79409743D01*
X115824000Y-79443160D01*
X118343680Y-79443160D01*
X118511678Y-79409743D01*
X118654100Y-79314580D01*
X119974900Y-77993780D01*
X120070063Y-77851358D01*
X120103480Y-77683360D01*
X120103480Y-75290680D01*
X120529956Y-75290680D01*
X120529956Y-77475080D01*
X120542856Y-77543637D01*
X120583373Y-77606602D01*
X120645195Y-77648843D01*
X120718580Y-77663704D01*
X121074600Y-77663704D01*
X121074600Y-78180536D01*
X120751600Y-78180536D01*
X120683043Y-78193436D01*
X120620078Y-78233953D01*
X120577837Y-78295775D01*
X120562976Y-78369160D01*
X120562976Y-80553560D01*
X120575876Y-80622117D01*
X120616393Y-80685082D01*
X120678215Y-80727323D01*
X120751600Y-80742184D01*
X121074600Y-80742184D01*
X121074600Y-83068160D01*
X121108017Y-83236158D01*
X121203180Y-83378580D01*
X121759440Y-83934840D01*
X121901862Y-84030003D01*
X122069860Y-84063420D01*
X123433240Y-84063420D01*
X123433240Y-84533456D01*
X123297240Y-84533456D01*
X123228683Y-84546356D01*
X123165718Y-84586873D01*
X123123477Y-84648695D01*
X123108616Y-84722080D01*
X123108616Y-85722080D01*
X123121516Y-85790637D01*
X123162033Y-85853602D01*
X123223855Y-85895843D01*
X123297240Y-85910704D01*
X124447240Y-85910704D01*
X124515797Y-85897804D01*
X124578762Y-85857287D01*
X124621003Y-85795465D01*
X124635864Y-85722080D01*
X124635864Y-84722080D01*
X124622964Y-84653523D01*
X124582447Y-84590558D01*
X124520625Y-84548317D01*
X124447240Y-84533456D01*
X124311240Y-84533456D01*
X124311240Y-83806280D01*
X124277823Y-83638282D01*
X124182660Y-83495860D01*
X124000800Y-83314000D01*
X123858378Y-83218837D01*
X123690380Y-83185420D01*
X122251700Y-83185420D01*
X121952600Y-82886320D01*
X121952600Y-80742184D01*
X122275600Y-80742184D01*
X122344157Y-80729284D01*
X122407122Y-80688767D01*
X122449363Y-80626945D01*
X122464224Y-80553560D01*
X122464224Y-79894610D01*
X123657600Y-79894610D01*
X123657600Y-80708115D01*
X123775891Y-80993695D01*
X123994465Y-81212269D01*
X124280045Y-81330560D01*
X124763350Y-81330560D01*
X124957600Y-81136310D01*
X124957600Y-79700360D01*
X125435600Y-79700360D01*
X125435600Y-81136310D01*
X125629850Y-81330560D01*
X126113155Y-81330560D01*
X126398735Y-81212269D01*
X126617309Y-80993695D01*
X126735600Y-80708115D01*
X126735600Y-79894610D01*
X126541350Y-79700360D01*
X125435600Y-79700360D01*
X124957600Y-79700360D01*
X123851850Y-79700360D01*
X123657600Y-79894610D01*
X122464224Y-79894610D01*
X122464224Y-78369160D01*
X122451324Y-78300603D01*
X122410807Y-78237638D01*
X122377097Y-78214605D01*
X123657600Y-78214605D01*
X123657600Y-79028110D01*
X123851850Y-79222360D01*
X124957600Y-79222360D01*
X124957600Y-79202360D01*
X125435600Y-79202360D01*
X125435600Y-79222360D01*
X126541350Y-79222360D01*
X126735600Y-79028110D01*
X126735600Y-78214605D01*
X126617309Y-77929025D01*
X126398735Y-77710451D01*
X126113155Y-77592160D01*
X126069488Y-77592160D01*
X126099343Y-77548465D01*
X126114204Y-77475080D01*
X126114204Y-76821880D01*
X129702560Y-76821880D01*
X129870558Y-76788463D01*
X130012980Y-76693300D01*
X130288880Y-76417400D01*
X130384043Y-76274978D01*
X130417461Y-76106980D01*
X130417460Y-76106975D01*
X130417460Y-74417944D01*
X131078460Y-74417944D01*
X131147017Y-74405044D01*
X131209982Y-74364527D01*
X131252223Y-74302705D01*
X131267084Y-74229320D01*
X131267084Y-69829320D01*
X131254184Y-69760763D01*
X131213667Y-69697798D01*
X131151845Y-69655557D01*
X131078460Y-69640696D01*
X128878460Y-69640696D01*
X128809903Y-69653596D01*
X128746938Y-69694113D01*
X128704697Y-69755935D01*
X128689836Y-69829320D01*
X128689836Y-74229320D01*
X128702736Y-74297877D01*
X128743253Y-74360842D01*
X128805075Y-74403083D01*
X128878460Y-74417944D01*
X129539460Y-74417944D01*
X129539460Y-75925140D01*
X129520720Y-75943880D01*
X126114204Y-75943880D01*
X126114204Y-75290680D01*
X126101304Y-75222123D01*
X126060787Y-75159158D01*
X125998965Y-75116917D01*
X125925580Y-75102056D01*
X124401580Y-75102056D01*
X124333023Y-75114956D01*
X124270058Y-75155473D01*
X124227817Y-75217295D01*
X124212956Y-75290680D01*
X124212956Y-77475080D01*
X124225856Y-77543637D01*
X124261913Y-77599671D01*
X123994465Y-77710451D01*
X123775891Y-77929025D01*
X123657600Y-78214605D01*
X122377097Y-78214605D01*
X122348985Y-78195397D01*
X122275600Y-78180536D01*
X121952600Y-78180536D01*
X121952600Y-77663704D01*
X122242580Y-77663704D01*
X122311137Y-77650804D01*
X122374102Y-77610287D01*
X122416343Y-77548465D01*
X122431204Y-77475080D01*
X122431204Y-75290680D01*
X122418304Y-75222123D01*
X122377787Y-75159158D01*
X122315965Y-75116917D01*
X122242580Y-75102056D01*
X120718580Y-75102056D01*
X120650023Y-75114956D01*
X120587058Y-75155473D01*
X120544817Y-75217295D01*
X120529956Y-75290680D01*
X120103480Y-75290680D01*
X120103480Y-74857840D01*
X120588000Y-74373320D01*
X123554197Y-74373320D01*
X123605075Y-74408083D01*
X123678460Y-74422944D01*
X125878460Y-74422944D01*
X125947017Y-74410044D01*
X126009982Y-74369527D01*
X126052223Y-74307705D01*
X126067084Y-74234320D01*
X126067084Y-73634320D01*
X126054184Y-73565763D01*
X126013667Y-73502798D01*
X125951845Y-73460557D01*
X125878460Y-73445696D01*
X123678460Y-73445696D01*
X123609903Y-73458596D01*
X123552832Y-73495320D01*
X121817524Y-73495320D01*
X121926869Y-73385975D01*
X121979464Y-73259000D01*
X122065870Y-73259000D01*
X122260120Y-73064750D01*
X122260120Y-72252000D01*
X122240120Y-72252000D01*
X122240120Y-71792000D01*
X122260120Y-71792000D01*
X122260120Y-71763000D01*
X122738120Y-71763000D01*
X122738120Y-71792000D01*
X122758120Y-71792000D01*
X122758120Y-72252000D01*
X122738120Y-72252000D01*
X122738120Y-73064750D01*
X122932370Y-73259000D01*
X123138675Y-73259000D01*
X123424255Y-73140709D01*
X123512270Y-73052694D01*
X123543253Y-73100842D01*
X123605075Y-73143083D01*
X123678460Y-73157944D01*
X125878460Y-73157944D01*
X125947017Y-73145044D01*
X126009982Y-73104527D01*
X126052223Y-73042705D01*
X126067084Y-72969320D01*
X126067084Y-69819320D01*
X126054184Y-69750763D01*
X126013667Y-69687798D01*
X125951845Y-69645557D01*
X125878460Y-69630696D01*
X123678460Y-69630696D01*
X123609903Y-69643596D01*
X123546938Y-69684113D01*
X123504697Y-69745935D01*
X123489836Y-69819320D01*
X123489836Y-70033000D01*
X123172744Y-70033000D01*
X123172744Y-70012000D01*
X123159844Y-69943443D01*
X123119327Y-69880478D01*
X123057505Y-69838237D01*
X122984120Y-69823376D01*
X122014120Y-69823376D01*
X121945563Y-69836276D01*
X121882598Y-69876793D01*
X121840357Y-69938615D01*
X121825496Y-70012000D01*
X121825496Y-70033000D01*
X121597720Y-70033000D01*
X121456784Y-70061034D01*
X121456784Y-70035840D01*
X121443884Y-69967283D01*
X121403367Y-69904318D01*
X121341545Y-69862077D01*
X121268160Y-69847216D01*
X119798160Y-69847216D01*
X119729603Y-69860116D01*
X119666638Y-69900633D01*
X119624397Y-69962455D01*
X119609536Y-70035840D01*
X119609536Y-70171840D01*
X118385480Y-70171840D01*
X118217482Y-70205257D01*
X118075060Y-70300420D01*
X117801520Y-70573960D01*
X117193624Y-70573960D01*
X117193624Y-69512960D01*
X117180724Y-69444403D01*
X117140207Y-69381438D01*
X117078385Y-69339197D01*
X117005000Y-69324336D01*
X115405000Y-69324336D01*
X115336443Y-69337236D01*
X115273478Y-69377753D01*
X115231237Y-69439575D01*
X115216376Y-69512960D01*
X115216376Y-70573960D01*
X113573920Y-70573960D01*
X113405922Y-70607377D01*
X113263500Y-70702540D01*
X113090420Y-70875620D01*
X112995257Y-71018042D01*
X112961840Y-71186040D01*
X112961840Y-76871600D01*
X112342700Y-77490740D01*
X111334780Y-77490740D01*
X111332860Y-77488820D01*
X111332860Y-77421740D01*
X111299443Y-77253742D01*
X111204280Y-77111320D01*
X108187764Y-74094804D01*
X109156154Y-74094804D01*
X109243635Y-74377722D01*
X109882598Y-74569602D01*
X110546352Y-74502357D01*
X110847245Y-74377722D01*
X110934726Y-74094804D01*
X110045440Y-73205517D01*
X109156154Y-74094804D01*
X108187764Y-74094804D01*
X107983500Y-73890540D01*
X107841078Y-73795377D01*
X107673080Y-73761960D01*
X107185199Y-73761960D01*
X107464722Y-73482925D01*
X107630251Y-73084287D01*
X107630582Y-72704678D01*
X108343358Y-72704678D01*
X108410603Y-73368432D01*
X108535238Y-73669325D01*
X108818156Y-73756806D01*
X109707443Y-72867520D01*
X110383437Y-72867520D01*
X111272724Y-73756806D01*
X111555642Y-73669325D01*
X111747522Y-73030362D01*
X111680277Y-72366608D01*
X111555642Y-72065715D01*
X111272724Y-71978234D01*
X110383437Y-72867520D01*
X109707443Y-72867520D01*
X108818156Y-71978234D01*
X108535238Y-72065715D01*
X108343358Y-72704678D01*
X107630582Y-72704678D01*
X107630628Y-72652647D01*
X107465794Y-72253720D01*
X107160845Y-71948238D01*
X106762207Y-71782709D01*
X106330567Y-71782332D01*
X105931640Y-71947166D01*
X105626158Y-72252115D01*
X105460629Y-72650753D01*
X105460252Y-73082393D01*
X105625086Y-73481320D01*
X105930035Y-73786802D01*
X106106440Y-73860052D01*
X106106440Y-74019120D01*
X104833020Y-75292540D01*
X104737857Y-75434962D01*
X104704440Y-75602960D01*
X104704440Y-77466169D01*
X104689677Y-77487775D01*
X104674816Y-77561160D01*
X104674816Y-77711344D01*
X104431340Y-77954820D01*
X104336177Y-78097242D01*
X104302760Y-78265240D01*
X104302760Y-78701809D01*
X104238203Y-78713956D01*
X104175238Y-78754473D01*
X104132997Y-78816295D01*
X104118136Y-78889680D01*
X104118136Y-79819680D01*
X104131036Y-79888237D01*
X104171553Y-79951202D01*
X104233375Y-79993443D01*
X104295331Y-80005989D01*
X104007380Y-80293940D01*
X103912217Y-80436362D01*
X103878800Y-80604360D01*
X102628460Y-80604360D01*
X102628460Y-71640236D01*
X109156154Y-71640236D01*
X110045440Y-72529523D01*
X110934726Y-71640236D01*
X110847245Y-71357318D01*
X110208282Y-71165438D01*
X109544528Y-71232683D01*
X109243635Y-71357318D01*
X109156154Y-71640236D01*
X102628460Y-71640236D01*
X102628460Y-68401960D01*
X179192160Y-68401960D01*
X179192160Y-102374940D01*
X179192160Y-102374940D01*
G37*
X179192160Y-102374940D02*
X139808980Y-102374940D01*
X139808980Y-97958910D01*
X146169986Y-97958910D01*
X146169986Y-99482910D01*
X146182886Y-99551467D01*
X146223403Y-99614432D01*
X146285225Y-99656673D01*
X146358610Y-99671534D01*
X147594702Y-99671534D01*
X147698881Y-99923045D01*
X147917455Y-100141619D01*
X148203035Y-100259910D01*
X148686340Y-100259910D01*
X148880590Y-100065660D01*
X148880590Y-98959910D01*
X148860590Y-98959910D01*
X148860590Y-98481910D01*
X148880590Y-98481910D01*
X148880590Y-97376160D01*
X149358590Y-97376160D01*
X149358590Y-98481910D01*
X149378590Y-98481910D01*
X149378590Y-98959910D01*
X149358590Y-98959910D01*
X149358590Y-100065660D01*
X149552840Y-100259910D01*
X150036145Y-100259910D01*
X150321725Y-100141619D01*
X150540299Y-99923045D01*
X150644478Y-99671534D01*
X151880570Y-99671534D01*
X151949127Y-99658634D01*
X152012092Y-99618117D01*
X152054333Y-99556295D01*
X152069194Y-99482910D01*
X152069194Y-97958910D01*
X152166926Y-97958910D01*
X152166926Y-99482910D01*
X152179826Y-99551467D01*
X152220343Y-99614432D01*
X152282165Y-99656673D01*
X152355550Y-99671534D01*
X153879550Y-99671534D01*
X153948107Y-99658634D01*
X154011072Y-99618117D01*
X154053313Y-99556295D01*
X154068174Y-99482910D01*
X154068174Y-97958910D01*
X154165906Y-97958910D01*
X154165906Y-99482910D01*
X154178806Y-99551467D01*
X154219323Y-99614432D01*
X154281145Y-99656673D01*
X154354530Y-99671534D01*
X155878530Y-99671534D01*
X155947087Y-99658634D01*
X156010052Y-99618117D01*
X156052293Y-99556295D01*
X156067154Y-99482910D01*
X156067154Y-97958910D01*
X156164886Y-97958910D01*
X156164886Y-99482910D01*
X156177786Y-99551467D01*
X156218303Y-99614432D01*
X156280125Y-99656673D01*
X156353510Y-99671534D01*
X157877510Y-99671534D01*
X157946067Y-99658634D01*
X158009032Y-99618117D01*
X158051273Y-99556295D01*
X158066134Y-99482910D01*
X158066134Y-97958910D01*
X158163866Y-97958910D01*
X158163866Y-99482910D01*
X158176766Y-99551467D01*
X158217283Y-99614432D01*
X158279105Y-99656673D01*
X158352490Y-99671534D01*
X159876490Y-99671534D01*
X159945047Y-99658634D01*
X160008012Y-99618117D01*
X160050253Y-99556295D01*
X160065114Y-99482910D01*
X160065114Y-97958910D01*
X160162846Y-97958910D01*
X160162846Y-99482910D01*
X160175746Y-99551467D01*
X160216263Y-99614432D01*
X160278085Y-99656673D01*
X160351470Y-99671534D01*
X161875470Y-99671534D01*
X161944027Y-99658634D01*
X162006992Y-99618117D01*
X162049233Y-99556295D01*
X162064094Y-99482910D01*
X162064094Y-98165920D01*
X173066803Y-98165920D01*
X173145588Y-98561997D01*
X173369947Y-98897776D01*
X173705726Y-99122135D01*
X174101803Y-99200920D01*
X174142357Y-99200920D01*
X174538434Y-99122135D01*
X174874213Y-98897776D01*
X175098572Y-98561997D01*
X175177357Y-98165920D01*
X175098572Y-97769843D01*
X174874213Y-97434064D01*
X174538434Y-97209705D01*
X174142357Y-97130920D01*
X174101803Y-97130920D01*
X173705726Y-97209705D01*
X173369947Y-97434064D01*
X173145588Y-97769843D01*
X173066803Y-98165920D01*
X162064094Y-98165920D01*
X162064094Y-97958910D01*
X162051194Y-97890353D01*
X162010677Y-97827388D01*
X161948855Y-97785147D01*
X161875470Y-97770286D01*
X160351470Y-97770286D01*
X160282913Y-97783186D01*
X160219948Y-97823703D01*
X160177707Y-97885525D01*
X160162846Y-97958910D01*
X160065114Y-97958910D01*
X160052214Y-97890353D01*
X160011697Y-97827388D01*
X159949875Y-97785147D01*
X159876490Y-97770286D01*
X158352490Y-97770286D01*
X158283933Y-97783186D01*
X158220968Y-97823703D01*
X158178727Y-97885525D01*
X158163866Y-97958910D01*
X158066134Y-97958910D01*
X158053234Y-97890353D01*
X158012717Y-97827388D01*
X157950895Y-97785147D01*
X157877510Y-97770286D01*
X156353510Y-97770286D01*
X156284953Y-97783186D01*
X156221988Y-97823703D01*
X156179747Y-97885525D01*
X156164886Y-97958910D01*
X156067154Y-97958910D01*
X156054254Y-97890353D01*
X156013737Y-97827388D01*
X155951915Y-97785147D01*
X155878530Y-97770286D01*
X154354530Y-97770286D01*
X154285973Y-97783186D01*
X154223008Y-97823703D01*
X154180767Y-97885525D01*
X154165906Y-97958910D01*
X154068174Y-97958910D01*
X154055274Y-97890353D01*
X154014757Y-97827388D01*
X153952935Y-97785147D01*
X153879550Y-97770286D01*
X152355550Y-97770286D01*
X152286993Y-97783186D01*
X152224028Y-97823703D01*
X152181787Y-97885525D01*
X152166926Y-97958910D01*
X152069194Y-97958910D01*
X152056294Y-97890353D01*
X152015777Y-97827388D01*
X151953955Y-97785147D01*
X151880570Y-97770286D01*
X150644478Y-97770286D01*
X150540299Y-97518775D01*
X150321725Y-97300201D01*
X150036145Y-97181910D01*
X149552840Y-97181910D01*
X149358590Y-97376160D01*
X148880590Y-97376160D01*
X148686340Y-97181910D01*
X148203035Y-97181910D01*
X147917455Y-97300201D01*
X147698881Y-97518775D01*
X147594702Y-97770286D01*
X146358610Y-97770286D01*
X146290053Y-97783186D01*
X146227088Y-97823703D01*
X146184847Y-97885525D01*
X146169986Y-97958910D01*
X139808980Y-97958910D01*
X139808980Y-95625920D01*
X173066803Y-95625920D01*
X173145588Y-96021997D01*
X173369947Y-96357776D01*
X173705726Y-96582135D01*
X174101803Y-96660920D01*
X174142357Y-96660920D01*
X174538434Y-96582135D01*
X174874213Y-96357776D01*
X175098572Y-96021997D01*
X175177357Y-95625920D01*
X175098572Y-95229843D01*
X174874213Y-94894064D01*
X174538434Y-94669705D01*
X174142357Y-94590920D01*
X174101803Y-94590920D01*
X173705726Y-94669705D01*
X173369947Y-94894064D01*
X173145588Y-95229843D01*
X173066803Y-95625920D01*
X139808980Y-95625920D01*
X139808980Y-89585980D01*
X141579840Y-89585980D01*
X141579840Y-90069285D01*
X141698131Y-90354865D01*
X141916705Y-90573439D01*
X142202285Y-90691730D01*
X142685590Y-90691730D01*
X142879840Y-90497480D01*
X142879840Y-89391730D01*
X143357840Y-89391730D01*
X143357840Y-90497480D01*
X143552090Y-90691730D01*
X144035395Y-90691730D01*
X144320975Y-90573439D01*
X144539549Y-90354865D01*
X144657840Y-90069285D01*
X144657840Y-89585980D01*
X144463590Y-89391730D01*
X143357840Y-89391730D01*
X142879840Y-89391730D01*
X141774090Y-89391730D01*
X141579840Y-89585980D01*
X139808980Y-89585980D01*
X139808980Y-88803480D01*
X139804938Y-88783160D01*
X139793427Y-88765933D01*
X139776200Y-88754422D01*
X139755880Y-88750380D01*
X102628460Y-88750380D01*
X102628460Y-88236175D01*
X141579840Y-88236175D01*
X141579840Y-88719480D01*
X141774090Y-88913730D01*
X142879840Y-88913730D01*
X142879840Y-88893730D01*
X143357840Y-88893730D01*
X143357840Y-88913730D01*
X144463590Y-88913730D01*
X144657840Y-88719480D01*
X144657840Y-88390730D01*
X164164616Y-88390730D01*
X164164616Y-89914730D01*
X164177516Y-89983287D01*
X164218033Y-90046252D01*
X164279855Y-90088493D01*
X164353240Y-90103354D01*
X165877240Y-90103354D01*
X165945797Y-90090454D01*
X166008762Y-90049937D01*
X166051003Y-89988115D01*
X166065864Y-89914730D01*
X166065864Y-88390730D01*
X166052964Y-88322173D01*
X166012447Y-88259208D01*
X165950625Y-88216967D01*
X165877240Y-88202106D01*
X164353240Y-88202106D01*
X164284683Y-88215006D01*
X164221718Y-88255523D01*
X164179477Y-88317345D01*
X164164616Y-88390730D01*
X144657840Y-88390730D01*
X144657840Y-88236175D01*
X144539549Y-87950595D01*
X144320975Y-87732021D01*
X144069464Y-87627842D01*
X144069464Y-86391750D01*
X164164616Y-86391750D01*
X164164616Y-87915750D01*
X164177516Y-87984307D01*
X164218033Y-88047272D01*
X164279855Y-88089513D01*
X164353240Y-88104374D01*
X165877240Y-88104374D01*
X165945797Y-88091474D01*
X166008762Y-88050957D01*
X166051003Y-87989135D01*
X166065864Y-87915750D01*
X166065864Y-86391750D01*
X166052964Y-86323193D01*
X166012447Y-86260228D01*
X165950625Y-86217987D01*
X165877240Y-86203126D01*
X164353240Y-86203126D01*
X164284683Y-86216026D01*
X164221718Y-86256543D01*
X164179477Y-86318365D01*
X164164616Y-86391750D01*
X144069464Y-86391750D01*
X144056564Y-86323193D01*
X144016047Y-86260228D01*
X143954225Y-86217987D01*
X143880840Y-86203126D01*
X142356840Y-86203126D01*
X142288283Y-86216026D01*
X142225318Y-86256543D01*
X142183077Y-86318365D01*
X142168216Y-86391750D01*
X142168216Y-87627842D01*
X141916705Y-87732021D01*
X141698131Y-87950595D01*
X141579840Y-88236175D01*
X102628460Y-88236175D01*
X102628460Y-82853610D01*
X104227880Y-82853610D01*
X104227880Y-82963915D01*
X104346171Y-83249495D01*
X104564745Y-83468069D01*
X104850325Y-83586360D01*
X104950630Y-83586360D01*
X105144880Y-83392110D01*
X105144880Y-82659360D01*
X104422130Y-82659360D01*
X104227880Y-82853610D01*
X102628460Y-82853610D01*
X102628460Y-80604360D01*
X103878800Y-80604360D01*
X103878800Y-81076800D01*
X103912217Y-81244798D01*
X104007380Y-81387220D01*
X104175020Y-81554860D01*
X104317442Y-81650023D01*
X104440830Y-81674566D01*
X104346171Y-81769225D01*
X104227880Y-82054805D01*
X104227880Y-82165110D01*
X104422130Y-82359360D01*
X105144880Y-82359360D01*
X105144880Y-82250360D01*
X105424880Y-82250360D01*
X105424880Y-82359360D01*
X105543880Y-82359360D01*
X105543880Y-82659360D01*
X105424880Y-82659360D01*
X105424880Y-83392110D01*
X105619130Y-83586360D01*
X105719435Y-83586360D01*
X105750978Y-83573294D01*
X105844460Y-83713200D01*
X105986882Y-83808363D01*
X106154880Y-83841780D01*
X106322878Y-83808363D01*
X106423934Y-83740840D01*
X106675727Y-83740840D01*
X106786304Y-83786756D01*
X106979249Y-83786924D01*
X107157572Y-83713243D01*
X107175720Y-83695126D01*
X107175720Y-84120140D01*
X107120964Y-84120140D01*
X107120964Y-84094140D01*
X107108064Y-84025583D01*
X107067547Y-83962618D01*
X107005725Y-83920377D01*
X106932340Y-83905516D01*
X106062340Y-83905516D01*
X105993783Y-83918416D01*
X105930818Y-83958933D01*
X105888577Y-84020755D01*
X105873716Y-84094140D01*
X105873716Y-85024140D01*
X105883729Y-85077353D01*
X105670945Y-85165491D01*
X105452371Y-85384065D01*
X105376340Y-85567620D01*
X105376340Y-85212011D01*
X105440897Y-85199864D01*
X105503862Y-85159347D01*
X105546103Y-85097525D01*
X105560964Y-85024140D01*
X105560964Y-84094140D01*
X105548064Y-84025583D01*
X105507547Y-83962618D01*
X105445725Y-83920377D01*
X105372340Y-83905516D01*
X104502340Y-83905516D01*
X104433783Y-83918416D01*
X104370818Y-83958933D01*
X104328577Y-84020755D01*
X104313716Y-84094140D01*
X104313716Y-85024140D01*
X104326616Y-85092697D01*
X104367133Y-85155662D01*
X104428955Y-85197903D01*
X104498340Y-85211954D01*
X104498340Y-85647381D01*
X104492523Y-85648476D01*
X104429558Y-85688993D01*
X104387317Y-85750815D01*
X104372456Y-85824200D01*
X104372456Y-86794200D01*
X104385356Y-86862757D01*
X104425873Y-86925722D01*
X104487695Y-86967963D01*
X104561080Y-86982824D01*
X105348192Y-86982824D01*
X105452371Y-87234335D01*
X105670945Y-87452909D01*
X105956525Y-87571200D01*
X106146830Y-87571200D01*
X106341080Y-87376950D01*
X106341080Y-86548200D01*
X106801080Y-86548200D01*
X106801080Y-87376950D01*
X106995330Y-87571200D01*
X107185635Y-87571200D01*
X107471215Y-87452909D01*
X107689789Y-87234335D01*
X107808080Y-86948755D01*
X107808080Y-86742450D01*
X107613830Y-86548200D01*
X106801080Y-86548200D01*
X106341080Y-86548200D01*
X106312080Y-86548200D01*
X106312080Y-86070200D01*
X106341080Y-86070200D01*
X106341080Y-86050200D01*
X106801080Y-86050200D01*
X106801080Y-86070200D01*
X107613830Y-86070200D01*
X107808080Y-85875950D01*
X107808080Y-85669645D01*
X107689789Y-85384065D01*
X107471215Y-85165491D01*
X107185635Y-85047200D01*
X107116294Y-85047200D01*
X107120964Y-85024140D01*
X107120964Y-84998140D01*
X107533440Y-84998140D01*
X107701438Y-84964723D01*
X107843860Y-84869560D01*
X107925140Y-84788280D01*
X108020303Y-84645858D01*
X108053720Y-84477860D01*
X108053720Y-84325000D01*
X108234056Y-84325000D01*
X108234056Y-85225000D01*
X108246956Y-85293557D01*
X108287473Y-85356522D01*
X108349295Y-85398763D01*
X108422680Y-85413624D01*
X109722680Y-85413624D01*
X109791237Y-85400724D01*
X109854202Y-85360207D01*
X109896443Y-85298385D01*
X109911304Y-85225000D01*
X109911304Y-84325000D01*
X109898404Y-84256443D01*
X109862114Y-84200046D01*
X110769940Y-83292220D01*
X110865103Y-83149798D01*
X110898520Y-82981800D01*
X110898520Y-82052160D01*
X110865103Y-81884162D01*
X110769940Y-81741740D01*
X110399100Y-81370900D01*
X110256678Y-81275737D01*
X110088680Y-81242320D01*
X109100620Y-81242320D01*
X108991145Y-81264096D01*
X108668820Y-81264096D01*
X108600263Y-81276996D01*
X108537298Y-81317513D01*
X108495057Y-81379335D01*
X108480196Y-81452720D01*
X108480196Y-81909920D01*
X108493096Y-81978477D01*
X108533613Y-82041442D01*
X108595435Y-82083683D01*
X108668820Y-82098544D01*
X108991145Y-82098544D01*
X109100620Y-82120320D01*
X109906840Y-82120320D01*
X110020520Y-82234000D01*
X110020520Y-82799960D01*
X108762260Y-84058220D01*
X108710038Y-84136376D01*
X108422680Y-84136376D01*
X108354123Y-84149276D01*
X108291158Y-84189793D01*
X108248917Y-84251615D01*
X108234056Y-84325000D01*
X108053720Y-84325000D01*
X108053720Y-83631000D01*
X108573800Y-83110920D01*
X109100620Y-83110920D01*
X109210095Y-83089144D01*
X109532420Y-83089144D01*
X109600977Y-83076244D01*
X109663942Y-83035727D01*
X109706183Y-82973905D01*
X109721044Y-82900520D01*
X109721044Y-82443320D01*
X109708144Y-82374763D01*
X109667627Y-82311798D01*
X109605805Y-82269557D01*
X109532420Y-82254696D01*
X109210095Y-82254696D01*
X109100620Y-82232920D01*
X108391960Y-82232920D01*
X108237535Y-82263637D01*
X108246760Y-82217260D01*
X108246760Y-80594916D01*
X108480196Y-80691608D01*
X108480196Y-80919320D01*
X108493096Y-80987877D01*
X108533613Y-81050842D01*
X108595435Y-81093083D01*
X108668820Y-81107944D01*
X108991145Y-81107944D01*
X109100620Y-81129720D01*
X110541840Y-81129720D01*
X111321000Y-81908880D01*
X111321000Y-83008240D01*
X110616460Y-83712780D01*
X110521297Y-83855202D01*
X110487880Y-84023200D01*
X110487880Y-84060176D01*
X110426880Y-84060176D01*
X110358323Y-84073076D01*
X110295358Y-84113593D01*
X110253117Y-84175415D01*
X110238256Y-84248800D01*
X110238256Y-85348800D01*
X110251156Y-85417357D01*
X110291673Y-85480322D01*
X110353495Y-85522563D01*
X110426880Y-85537424D01*
X111321656Y-85537424D01*
X111098904Y-85760176D01*
X110426880Y-85760176D01*
X110358323Y-85773076D01*
X110295358Y-85813593D01*
X110253117Y-85875415D01*
X110238256Y-85948800D01*
X110238256Y-86236000D01*
X109911304Y-86236000D01*
X109911304Y-86225000D01*
X109898404Y-86156443D01*
X109857887Y-86093478D01*
X109796065Y-86051237D01*
X109722680Y-86036376D01*
X108422680Y-86036376D01*
X108354123Y-86049276D01*
X108291158Y-86089793D01*
X108248917Y-86151615D01*
X108234056Y-86225000D01*
X108234056Y-87125000D01*
X108246956Y-87193557D01*
X108287473Y-87256522D01*
X108349295Y-87298763D01*
X108422680Y-87313624D01*
X109722680Y-87313624D01*
X109791237Y-87300724D01*
X109854202Y-87260207D01*
X109896443Y-87198385D01*
X109911304Y-87125000D01*
X109911304Y-87114000D01*
X110250524Y-87114000D01*
X110251156Y-87117357D01*
X110291673Y-87180322D01*
X110353495Y-87222563D01*
X110426880Y-87237424D01*
X111426880Y-87237424D01*
X111495437Y-87224524D01*
X111558402Y-87184007D01*
X111600643Y-87122185D01*
X111615504Y-87048800D01*
X111615504Y-86485256D01*
X112049722Y-86051038D01*
X112059356Y-86102237D01*
X112099873Y-86165202D01*
X112161695Y-86207443D01*
X112235080Y-86222304D01*
X113235080Y-86222304D01*
X113303637Y-86209404D01*
X113366602Y-86168887D01*
X113408843Y-86107065D01*
X113423704Y-86033680D01*
X113423704Y-84613680D01*
X113410804Y-84545123D01*
X113370287Y-84482158D01*
X113308465Y-84439917D01*
X113235080Y-84425056D01*
X112235080Y-84425056D01*
X112166523Y-84437956D01*
X112103558Y-84478473D01*
X112061317Y-84540295D01*
X112046456Y-84613680D01*
X112046456Y-84906517D01*
X111988242Y-84918097D01*
X111845820Y-85013260D01*
X111615504Y-85243576D01*
X111615504Y-84248800D01*
X111602604Y-84180243D01*
X111562087Y-84117278D01*
X111500265Y-84075037D01*
X111496621Y-84074299D01*
X111692971Y-83877949D01*
X113632036Y-83877949D01*
X113678120Y-83989482D01*
X113678120Y-84089240D01*
X113711537Y-84257238D01*
X113806700Y-84399660D01*
X113937819Y-84530779D01*
X113931317Y-84540295D01*
X113916456Y-84613680D01*
X113916456Y-86033680D01*
X113929356Y-86102237D01*
X113969873Y-86165202D01*
X114031695Y-86207443D01*
X114105080Y-86222304D01*
X115105080Y-86222304D01*
X115173637Y-86209404D01*
X115236602Y-86168887D01*
X115278843Y-86107065D01*
X115293704Y-86033680D01*
X115293704Y-84613680D01*
X115280804Y-84545123D01*
X115240287Y-84482158D01*
X115178465Y-84439917D01*
X115105080Y-84425056D01*
X115013817Y-84425056D01*
X115010663Y-84409202D01*
X114915500Y-84266780D01*
X114580171Y-83931451D01*
X114602036Y-83878796D01*
X114602204Y-83685851D01*
X114528523Y-83507528D01*
X114392209Y-83370977D01*
X114214016Y-83296984D01*
X114021071Y-83296816D01*
X113842748Y-83370497D01*
X113706197Y-83506811D01*
X113632204Y-83685004D01*
X113632036Y-83877949D01*
X111692971Y-83877949D01*
X112070420Y-83500500D01*
X112165583Y-83358078D01*
X112199000Y-83190080D01*
X112199000Y-82752729D01*
X112560156Y-82752729D01*
X112633837Y-82931052D01*
X112770151Y-83067603D01*
X112948344Y-83141596D01*
X113141289Y-83141764D01*
X113215938Y-83110920D01*
X114256820Y-83110920D01*
X114366295Y-83089144D01*
X114688620Y-83089144D01*
X114757177Y-83076244D01*
X114820142Y-83035727D01*
X114862383Y-82973905D01*
X114877244Y-82900520D01*
X114877244Y-82443320D01*
X114864344Y-82374763D01*
X114823827Y-82311798D01*
X114762005Y-82269557D01*
X114688620Y-82254696D01*
X114366295Y-82254696D01*
X114256820Y-82232920D01*
X113289414Y-82232920D01*
X113142136Y-82171764D01*
X112949191Y-82171596D01*
X112770868Y-82245277D01*
X112634317Y-82381591D01*
X112560324Y-82559784D01*
X112560156Y-82752729D01*
X112199000Y-82752729D01*
X112199000Y-81727040D01*
X112165583Y-81559042D01*
X112070420Y-81416620D01*
X111034100Y-80380300D01*
X110891678Y-80285137D01*
X110723680Y-80251720D01*
X110239648Y-80251720D01*
X110309420Y-80083275D01*
X110309420Y-80008670D01*
X110115170Y-79814420D01*
X109316520Y-79814420D01*
X109316520Y-79928720D01*
X108884720Y-79928720D01*
X108884720Y-79814420D01*
X108086070Y-79814420D01*
X107891820Y-80008670D01*
X107891820Y-80032020D01*
X106925384Y-79065584D01*
X106925384Y-78889680D01*
X106912484Y-78821123D01*
X106905745Y-78810649D01*
X107269336Y-78810649D01*
X107343017Y-78988972D01*
X107479331Y-79125523D01*
X107657524Y-79199516D01*
X107850469Y-79199684D01*
X107958969Y-79154853D01*
X107891820Y-79316965D01*
X107891820Y-79391570D01*
X108086070Y-79585820D01*
X108884720Y-79585820D01*
X108884720Y-79471520D01*
X109316520Y-79471520D01*
X109316520Y-79585820D01*
X110115170Y-79585820D01*
X110309420Y-79391570D01*
X110309420Y-79316965D01*
X110191129Y-79031385D01*
X109972555Y-78812811D01*
X109721044Y-78708632D01*
X109721044Y-78480920D01*
X109708144Y-78412363D01*
X109667627Y-78349398D01*
X109605805Y-78307157D01*
X109532420Y-78292296D01*
X109210095Y-78292296D01*
X109100620Y-78270520D01*
X107949659Y-78270520D01*
X107851316Y-78229684D01*
X107658371Y-78229516D01*
X107480048Y-78303197D01*
X107343497Y-78439511D01*
X107269504Y-78617704D01*
X107269336Y-78810649D01*
X106905745Y-78810649D01*
X106871967Y-78758158D01*
X106810145Y-78715917D01*
X106740760Y-78701866D01*
X106740760Y-78625920D01*
X106707343Y-78457922D01*
X106612180Y-78315500D01*
X106552599Y-78255919D01*
X106567203Y-78234545D01*
X106582064Y-78161160D01*
X106582064Y-77561160D01*
X106569164Y-77492603D01*
X106528647Y-77429638D01*
X106466825Y-77387397D01*
X106393440Y-77372536D01*
X105833440Y-77372536D01*
X105764883Y-77385436D01*
X105701918Y-77425953D01*
X105659677Y-77487775D01*
X105644816Y-77561160D01*
X105644816Y-78161160D01*
X105657716Y-78229717D01*
X105674440Y-78255707D01*
X105674440Y-78437600D01*
X105707857Y-78605598D01*
X105785655Y-78722031D01*
X105735238Y-78754473D01*
X105692997Y-78816295D01*
X105678136Y-78889680D01*
X105678136Y-79819680D01*
X105691036Y-79888237D01*
X105731553Y-79951202D01*
X105793375Y-79993443D01*
X105866760Y-80008304D01*
X106626424Y-80008304D01*
X107368760Y-80750640D01*
X107368760Y-80891768D01*
X107264969Y-80787797D01*
X107086776Y-80713804D01*
X106893831Y-80713636D01*
X106715508Y-80787317D01*
X106697353Y-80805440D01*
X106437463Y-80805440D01*
X106386585Y-80770677D01*
X106313200Y-80755816D01*
X105773200Y-80755816D01*
X105704643Y-80768716D01*
X105641678Y-80809233D01*
X105613023Y-80851172D01*
X105588407Y-80812918D01*
X105526585Y-80770677D01*
X105453200Y-80755816D01*
X104913200Y-80755816D01*
X104844643Y-80768716D01*
X104787572Y-80805440D01*
X104756800Y-80805440D01*
X104756800Y-80786200D01*
X105052180Y-80490820D01*
X105147343Y-80348398D01*
X105180760Y-80180400D01*
X105180760Y-80007551D01*
X105245317Y-79995404D01*
X105308282Y-79954887D01*
X105350523Y-79893065D01*
X105365384Y-79819680D01*
X105365384Y-78889680D01*
X105352484Y-78821123D01*
X105311967Y-78758158D01*
X105250145Y-78715917D01*
X105180760Y-78701866D01*
X105180760Y-78447080D01*
X105278056Y-78349784D01*
X105423440Y-78349784D01*
X105491997Y-78336884D01*
X105554962Y-78296367D01*
X105597203Y-78234545D01*
X105612064Y-78161160D01*
X105612064Y-77561160D01*
X105599164Y-77492603D01*
X105582440Y-77466613D01*
X105582440Y-75784800D01*
X106727280Y-74639960D01*
X107491240Y-74639960D01*
X110454860Y-77603580D01*
X110454860Y-77670660D01*
X110488277Y-77838658D01*
X110583440Y-77981080D01*
X110842520Y-78240160D01*
X110984942Y-78335323D01*
X111152940Y-78368740D01*
X111910280Y-78368740D01*
X111910280Y-79339440D01*
X111943697Y-79507438D01*
X112038860Y-79649860D01*
X112319220Y-79930220D01*
X112319220Y-80551020D01*
X112352637Y-80719018D01*
X112362039Y-80733088D01*
X112362036Y-80735969D01*
X112435717Y-80914292D01*
X112572031Y-81050843D01*
X112750224Y-81124836D01*
X112943169Y-81125004D01*
X113121492Y-81051323D01*
X113258043Y-80915009D01*
X113332036Y-80736816D01*
X113332204Y-80543871D01*
X113298426Y-80462120D01*
X113636396Y-80462120D01*
X113636396Y-80919320D01*
X113649296Y-80987877D01*
X113689813Y-81050842D01*
X113751635Y-81093083D01*
X113825020Y-81107944D01*
X114147345Y-81107944D01*
X114256820Y-81129720D01*
X115295680Y-81129720D01*
X115463678Y-81096303D01*
X115606100Y-81001140D01*
X115985520Y-80621720D01*
X116900436Y-80621720D01*
X116778991Y-80743165D01*
X116674812Y-80994676D01*
X116019700Y-80994676D01*
X115951143Y-81007576D01*
X115888178Y-81048093D01*
X115845937Y-81109915D01*
X115831076Y-81183300D01*
X115831076Y-82113300D01*
X115843976Y-82181857D01*
X115884493Y-82244822D01*
X115946315Y-82287063D01*
X116019700Y-82301924D01*
X116085700Y-82301924D01*
X116085700Y-82661420D01*
X116119117Y-82829418D01*
X116214280Y-82971840D01*
X116577720Y-83335280D01*
X115821040Y-83335280D01*
X115821040Y-82113120D01*
X115787623Y-81945122D01*
X115692460Y-81802700D01*
X115260660Y-81370900D01*
X115118238Y-81275737D01*
X114950240Y-81242320D01*
X114256820Y-81242320D01*
X114147345Y-81264096D01*
X113825020Y-81264096D01*
X113756463Y-81276996D01*
X113693498Y-81317513D01*
X113651257Y-81379335D01*
X113636396Y-81452720D01*
X113636396Y-81909920D01*
X113649296Y-81978477D01*
X113689813Y-82041442D01*
X113751635Y-82083683D01*
X113825020Y-82098544D01*
X114147345Y-82098544D01*
X114256820Y-82120320D01*
X114768400Y-82120320D01*
X114943040Y-82294960D01*
X114943040Y-83576160D01*
X114976457Y-83744158D01*
X115071620Y-83886580D01*
X115269740Y-84084700D01*
X115412162Y-84179863D01*
X115580160Y-84213280D01*
X115781375Y-84213280D01*
X115727678Y-84247833D01*
X115685437Y-84309655D01*
X115670576Y-84383040D01*
X115670576Y-86183040D01*
X115683476Y-86251597D01*
X115723993Y-86314562D01*
X115785815Y-86356803D01*
X115859200Y-86371664D01*
X116220200Y-86371664D01*
X116220200Y-87169800D01*
X116253617Y-87337798D01*
X116348780Y-87480220D01*
X116694680Y-87826120D01*
X116837102Y-87921283D01*
X117005100Y-87954700D01*
X125615700Y-87954700D01*
X125783698Y-87921283D01*
X125926120Y-87826120D01*
X126480980Y-87271260D01*
X126576143Y-87128838D01*
X126609561Y-86960840D01*
X126609560Y-86960835D01*
X126609560Y-86251344D01*
X127270560Y-86251344D01*
X127304988Y-86244866D01*
X127411851Y-86502855D01*
X127630425Y-86721429D01*
X127916005Y-86839720D01*
X128737310Y-86839720D01*
X128931560Y-86645470D01*
X128931560Y-85501720D01*
X129409560Y-85501720D01*
X129409560Y-86645470D01*
X129603810Y-86839720D01*
X130425115Y-86839720D01*
X130710695Y-86721429D01*
X130929269Y-86502855D01*
X131047560Y-86217275D01*
X131047560Y-85695970D01*
X130853310Y-85501720D01*
X129409560Y-85501720D01*
X128931560Y-85501720D01*
X128911560Y-85501720D01*
X128911560Y-85466384D01*
X136001414Y-85466384D01*
X136088895Y-85749302D01*
X136727858Y-85941182D01*
X137391612Y-85873937D01*
X137692505Y-85749302D01*
X137779986Y-85466384D01*
X136890700Y-84577097D01*
X136001414Y-85466384D01*
X128911560Y-85466384D01*
X128911560Y-85023720D01*
X128931560Y-85023720D01*
X128931560Y-83879970D01*
X129409560Y-83879970D01*
X129409560Y-85023720D01*
X130853310Y-85023720D01*
X131047560Y-84829470D01*
X131047560Y-84308165D01*
X130929269Y-84022585D01*
X130710695Y-83804011D01*
X130425115Y-83685720D01*
X129603810Y-83685720D01*
X129409560Y-83879970D01*
X128931560Y-83879970D01*
X128737310Y-83685720D01*
X127916005Y-83685720D01*
X127630425Y-83804011D01*
X127411851Y-84022585D01*
X127304800Y-84281030D01*
X127270560Y-84274096D01*
X126736560Y-84274096D01*
X126736560Y-83499584D01*
X128288545Y-81947600D01*
X132239256Y-81947600D01*
X132824700Y-82533045D01*
X132824700Y-83298995D01*
X132776900Y-83318746D01*
X132471418Y-83623695D01*
X132305889Y-84022333D01*
X132305512Y-84453973D01*
X132470346Y-84852900D01*
X132775295Y-85158382D01*
X133173933Y-85323911D01*
X133605573Y-85324288D01*
X134004500Y-85159454D01*
X134309982Y-84854505D01*
X134400336Y-84636908D01*
X135286313Y-83750931D01*
X135188618Y-84076258D01*
X135255863Y-84740012D01*
X135380498Y-85040905D01*
X135663416Y-85128386D01*
X136552703Y-84239100D01*
X137228697Y-84239100D01*
X138117984Y-85128386D01*
X138400902Y-85040905D01*
X138592782Y-84401942D01*
X138591853Y-84392770D01*
X142168216Y-84392770D01*
X142168216Y-85916770D01*
X142181116Y-85985327D01*
X142221633Y-86048292D01*
X142283455Y-86090533D01*
X142356840Y-86105394D01*
X143880840Y-86105394D01*
X143949397Y-86092494D01*
X144012362Y-86051977D01*
X144054603Y-85990155D01*
X144069464Y-85916770D01*
X144069464Y-84392770D01*
X164164616Y-84392770D01*
X164164616Y-85916770D01*
X164177516Y-85985327D01*
X164218033Y-86048292D01*
X164279855Y-86090533D01*
X164353240Y-86105394D01*
X165877240Y-86105394D01*
X165945797Y-86092494D01*
X166008762Y-86051977D01*
X166051003Y-85990155D01*
X166065864Y-85916770D01*
X166065864Y-84392770D01*
X166052964Y-84324213D01*
X166012447Y-84261248D01*
X165950625Y-84219007D01*
X165877240Y-84204146D01*
X164353240Y-84204146D01*
X164284683Y-84217046D01*
X164221718Y-84257563D01*
X164179477Y-84319385D01*
X164164616Y-84392770D01*
X144069464Y-84392770D01*
X144056564Y-84324213D01*
X144016047Y-84261248D01*
X143954225Y-84219007D01*
X143880840Y-84204146D01*
X142356840Y-84204146D01*
X142288283Y-84217046D01*
X142225318Y-84257563D01*
X142183077Y-84319385D01*
X142168216Y-84392770D01*
X138591853Y-84392770D01*
X138525537Y-83738188D01*
X138400902Y-83437295D01*
X138117984Y-83349814D01*
X137228697Y-84239100D01*
X136552703Y-84239100D01*
X136538560Y-84224958D01*
X136876558Y-83886960D01*
X136890700Y-83901103D01*
X137779986Y-83011816D01*
X137692505Y-82728898D01*
X137053542Y-82537018D01*
X136389788Y-82604263D01*
X136088895Y-82728898D01*
X136001414Y-83011814D01*
X135937601Y-82948001D01*
X135958160Y-82844640D01*
X135958160Y-82393790D01*
X142168216Y-82393790D01*
X142168216Y-83917790D01*
X142181116Y-83986347D01*
X142221633Y-84049312D01*
X142283455Y-84091553D01*
X142356840Y-84106414D01*
X143880840Y-84106414D01*
X143949397Y-84093514D01*
X144012362Y-84052997D01*
X144054603Y-83991175D01*
X144069464Y-83917790D01*
X144069464Y-82393790D01*
X164164616Y-82393790D01*
X164164616Y-83917790D01*
X164177516Y-83986347D01*
X164218033Y-84049312D01*
X164279855Y-84091553D01*
X164353240Y-84106414D01*
X165877240Y-84106414D01*
X165945797Y-84093514D01*
X166008762Y-84052997D01*
X166051003Y-83991175D01*
X166065864Y-83917790D01*
X166065864Y-82393790D01*
X166052964Y-82325233D01*
X166012447Y-82262268D01*
X165950625Y-82220027D01*
X165877240Y-82205166D01*
X164353240Y-82205166D01*
X164284683Y-82218066D01*
X164221718Y-82258583D01*
X164179477Y-82320405D01*
X164164616Y-82393790D01*
X144069464Y-82393790D01*
X144056564Y-82325233D01*
X144016047Y-82262268D01*
X143954225Y-82220027D01*
X143880840Y-82205166D01*
X142356840Y-82205166D01*
X142288283Y-82218066D01*
X142225318Y-82258583D01*
X142183077Y-82320405D01*
X142168216Y-82393790D01*
X135958160Y-82393790D01*
X135958160Y-80394810D01*
X142168216Y-80394810D01*
X142168216Y-81918810D01*
X142181116Y-81987367D01*
X142221633Y-82050332D01*
X142283455Y-82092573D01*
X142356840Y-82107434D01*
X143880840Y-82107434D01*
X143949397Y-82094534D01*
X144012362Y-82054017D01*
X144054603Y-81992195D01*
X144069464Y-81918810D01*
X144069464Y-80394810D01*
X164164616Y-80394810D01*
X164164616Y-81918810D01*
X164177516Y-81987367D01*
X164218033Y-82050332D01*
X164279855Y-82092573D01*
X164353240Y-82107434D01*
X165877240Y-82107434D01*
X165945797Y-82094534D01*
X166008762Y-82054017D01*
X166051003Y-81992195D01*
X166065864Y-81918810D01*
X166065864Y-80394810D01*
X166052964Y-80326253D01*
X166012447Y-80263288D01*
X165950625Y-80221047D01*
X165877240Y-80206186D01*
X164353240Y-80206186D01*
X164284683Y-80219086D01*
X164221718Y-80259603D01*
X164179477Y-80321425D01*
X164164616Y-80394810D01*
X144069464Y-80394810D01*
X144056564Y-80326253D01*
X144016047Y-80263288D01*
X143954225Y-80221047D01*
X143880840Y-80206186D01*
X142356840Y-80206186D01*
X142288283Y-80219086D01*
X142225318Y-80259603D01*
X142183077Y-80321425D01*
X142168216Y-80394810D01*
X135958160Y-80394810D01*
X135958160Y-78395830D01*
X142168216Y-78395830D01*
X142168216Y-79919830D01*
X142181116Y-79988387D01*
X142221633Y-80051352D01*
X142283455Y-80093593D01*
X142356840Y-80108454D01*
X143880840Y-80108454D01*
X143949397Y-80095554D01*
X144012362Y-80055037D01*
X144054603Y-79993215D01*
X144069464Y-79919830D01*
X144069464Y-78395830D01*
X164164616Y-78395830D01*
X164164616Y-79919830D01*
X164177516Y-79988387D01*
X164218033Y-80051352D01*
X164279855Y-80093593D01*
X164353240Y-80108454D01*
X165877240Y-80108454D01*
X165945797Y-80095554D01*
X166008762Y-80055037D01*
X166051003Y-79993215D01*
X166065864Y-79919830D01*
X166065864Y-78395830D01*
X166052964Y-78327273D01*
X166012447Y-78264308D01*
X165950625Y-78222067D01*
X165877240Y-78207206D01*
X164353240Y-78207206D01*
X164284683Y-78220106D01*
X164221718Y-78260623D01*
X164179477Y-78322445D01*
X164164616Y-78395830D01*
X144069464Y-78395830D01*
X144056564Y-78327273D01*
X144016047Y-78264308D01*
X143954225Y-78222067D01*
X143880840Y-78207206D01*
X142356840Y-78207206D01*
X142288283Y-78220106D01*
X142225318Y-78260623D01*
X142183077Y-78322445D01*
X142168216Y-78395830D01*
X135958160Y-78395830D01*
X135958160Y-76396850D01*
X142168216Y-76396850D01*
X142168216Y-77920850D01*
X142181116Y-77989407D01*
X142221633Y-78052372D01*
X142283455Y-78094613D01*
X142356840Y-78109474D01*
X143880840Y-78109474D01*
X143949397Y-78096574D01*
X144012362Y-78056057D01*
X144054603Y-77994235D01*
X144069464Y-77920850D01*
X144069464Y-76396850D01*
X164164616Y-76396850D01*
X164164616Y-77920850D01*
X164177516Y-77989407D01*
X164218033Y-78052372D01*
X164279855Y-78094613D01*
X164353240Y-78109474D01*
X165877240Y-78109474D01*
X165945797Y-78096574D01*
X166008762Y-78056057D01*
X166051003Y-77994235D01*
X166065864Y-77920850D01*
X166065864Y-76396850D01*
X166052964Y-76328293D01*
X166012447Y-76265328D01*
X165950625Y-76223087D01*
X165877240Y-76208226D01*
X164353240Y-76208226D01*
X164284683Y-76221126D01*
X164221718Y-76261643D01*
X164179477Y-76323465D01*
X164164616Y-76396850D01*
X144069464Y-76396850D01*
X144056564Y-76328293D01*
X144016047Y-76265328D01*
X143954225Y-76223087D01*
X143880840Y-76208226D01*
X142356840Y-76208226D01*
X142288283Y-76221126D01*
X142225318Y-76261643D01*
X142183077Y-76323465D01*
X142168216Y-76396850D01*
X135958160Y-76396850D01*
X135958160Y-74397870D01*
X142168216Y-74397870D01*
X142168216Y-75921870D01*
X142181116Y-75990427D01*
X142221633Y-76053392D01*
X142283455Y-76095633D01*
X142356840Y-76110494D01*
X143880840Y-76110494D01*
X143949397Y-76097594D01*
X144012362Y-76057077D01*
X144054603Y-75995255D01*
X144069464Y-75921870D01*
X144069464Y-74397870D01*
X164164616Y-74397870D01*
X164164616Y-75921870D01*
X164177516Y-75990427D01*
X164218033Y-76053392D01*
X164279855Y-76095633D01*
X164353240Y-76110494D01*
X165877240Y-76110494D01*
X165945797Y-76097594D01*
X166008762Y-76057077D01*
X166051003Y-75995255D01*
X166065864Y-75921870D01*
X166065864Y-74397870D01*
X166052964Y-74329313D01*
X166012447Y-74266348D01*
X165950625Y-74224107D01*
X165877240Y-74209246D01*
X164353240Y-74209246D01*
X164284683Y-74222146D01*
X164221718Y-74262663D01*
X164179477Y-74324485D01*
X164164616Y-74397870D01*
X144069464Y-74397870D01*
X144056564Y-74329313D01*
X144016047Y-74266348D01*
X143954225Y-74224107D01*
X143880840Y-74209246D01*
X142356840Y-74209246D01*
X142288283Y-74222146D01*
X142225318Y-74262663D01*
X142183077Y-74324485D01*
X142168216Y-74397870D01*
X135958160Y-74397870D01*
X135958160Y-74138284D01*
X137697554Y-72398890D01*
X142168216Y-72398890D01*
X142168216Y-73922890D01*
X142181116Y-73991447D01*
X142221633Y-74054412D01*
X142283455Y-74096653D01*
X142356840Y-74111514D01*
X143880840Y-74111514D01*
X143949397Y-74098614D01*
X144012362Y-74058097D01*
X144054603Y-73996275D01*
X144069464Y-73922890D01*
X144069464Y-72398890D01*
X164164616Y-72398890D01*
X164164616Y-73922890D01*
X164177516Y-73991447D01*
X164218033Y-74054412D01*
X164279855Y-74096653D01*
X164353240Y-74111514D01*
X165877240Y-74111514D01*
X165945797Y-74098614D01*
X166008762Y-74058097D01*
X166051003Y-73996275D01*
X166065864Y-73922890D01*
X166065864Y-72398890D01*
X166052964Y-72330333D01*
X166012447Y-72267368D01*
X165950625Y-72225127D01*
X165877240Y-72210266D01*
X164353240Y-72210266D01*
X164284683Y-72223166D01*
X164221718Y-72263683D01*
X164179477Y-72325505D01*
X164164616Y-72398890D01*
X144069464Y-72398890D01*
X144056564Y-72330333D01*
X144016047Y-72267368D01*
X143954225Y-72225127D01*
X143880840Y-72210266D01*
X142356840Y-72210266D01*
X142288283Y-72223166D01*
X142225318Y-72263683D01*
X142183077Y-72325505D01*
X142168216Y-72398890D01*
X137697554Y-72398890D01*
X138368535Y-71727910D01*
X142168216Y-71727910D01*
X142168216Y-71923910D01*
X142181116Y-71992467D01*
X142221633Y-72055432D01*
X142283455Y-72097673D01*
X142356840Y-72112534D01*
X143880840Y-72112534D01*
X143949397Y-72099634D01*
X144012362Y-72059117D01*
X144054603Y-71997295D01*
X144069464Y-71923910D01*
X144069464Y-70399910D01*
X164164616Y-70399910D01*
X164164616Y-71923910D01*
X164177516Y-71992467D01*
X164218033Y-72055432D01*
X164279855Y-72097673D01*
X164353240Y-72112534D01*
X165877240Y-72112534D01*
X165945797Y-72099634D01*
X166008762Y-72059117D01*
X166051003Y-71997295D01*
X166065864Y-71923910D01*
X166065864Y-71600910D01*
X169303470Y-71600910D01*
X170871300Y-73168740D01*
X170871300Y-91744800D01*
X170904717Y-91912798D01*
X170999880Y-92055220D01*
X172341000Y-93396340D01*
X172483422Y-93491503D01*
X172651420Y-93524920D01*
X173174268Y-93524920D01*
X173369947Y-93817776D01*
X173705726Y-94042135D01*
X174101803Y-94120920D01*
X174142357Y-94120920D01*
X174538434Y-94042135D01*
X174874213Y-93817776D01*
X175098572Y-93481997D01*
X175177357Y-93085920D01*
X175098572Y-92689843D01*
X174874213Y-92354064D01*
X174538434Y-92129705D01*
X174142357Y-92050920D01*
X174101803Y-92050920D01*
X173705726Y-92129705D01*
X173369947Y-92354064D01*
X173174268Y-92646920D01*
X172833260Y-92646920D01*
X171749300Y-91562960D01*
X171749300Y-90545920D01*
X173066803Y-90545920D01*
X173145588Y-90941997D01*
X173369947Y-91277776D01*
X173705726Y-91502135D01*
X174101803Y-91580920D01*
X174142357Y-91580920D01*
X174538434Y-91502135D01*
X174874213Y-91277776D01*
X175098572Y-90941997D01*
X175177357Y-90545920D01*
X175098572Y-90149843D01*
X174874213Y-89814064D01*
X174538434Y-89589705D01*
X174142357Y-89510920D01*
X174101803Y-89510920D01*
X173705726Y-89589705D01*
X173369947Y-89814064D01*
X173145588Y-90149843D01*
X173066803Y-90545920D01*
X171749300Y-90545920D01*
X171749300Y-88005920D01*
X173066803Y-88005920D01*
X173145588Y-88401997D01*
X173369947Y-88737776D01*
X173705726Y-88962135D01*
X174101803Y-89040920D01*
X174142357Y-89040920D01*
X174538434Y-88962135D01*
X174874213Y-88737776D01*
X175098572Y-88401997D01*
X175177357Y-88005920D01*
X175098572Y-87609843D01*
X174874213Y-87274064D01*
X174538434Y-87049705D01*
X174142357Y-86970920D01*
X174101803Y-86970920D01*
X173705726Y-87049705D01*
X173369947Y-87274064D01*
X173145588Y-87609843D01*
X173066803Y-88005920D01*
X171749300Y-88005920D01*
X171749300Y-83359170D01*
X172495080Y-83359170D01*
X172495080Y-83930475D01*
X172613371Y-84216055D01*
X172831945Y-84434629D01*
X173117525Y-84552920D01*
X173641050Y-84552920D01*
X173369947Y-84734064D01*
X173145588Y-85069843D01*
X173066803Y-85465920D01*
X173145588Y-85861997D01*
X173369947Y-86197776D01*
X173705726Y-86422135D01*
X174101803Y-86500920D01*
X174142357Y-86500920D01*
X174538434Y-86422135D01*
X174874213Y-86197776D01*
X175098572Y-85861997D01*
X175177357Y-85465920D01*
X175098572Y-85069843D01*
X174874213Y-84734064D01*
X174603110Y-84552920D01*
X175126635Y-84552920D01*
X175412215Y-84434629D01*
X175630789Y-84216055D01*
X175749080Y-83930475D01*
X175749080Y-83359170D01*
X175554830Y-83164920D01*
X174361080Y-83164920D01*
X174361080Y-83184920D01*
X173883080Y-83184920D01*
X173883080Y-83164920D01*
X172689330Y-83164920D01*
X172495080Y-83359170D01*
X171749300Y-83359170D01*
X171749300Y-81921365D01*
X172495080Y-81921365D01*
X172495080Y-82492670D01*
X172689330Y-82686920D01*
X173883080Y-82686920D01*
X173883080Y-81493170D01*
X174361080Y-81493170D01*
X174361080Y-82686920D01*
X175554830Y-82686920D01*
X175749080Y-82492670D01*
X175749080Y-81921365D01*
X175630789Y-81635785D01*
X175412215Y-81417211D01*
X175126635Y-81298920D01*
X174555330Y-81298920D01*
X174361080Y-81493170D01*
X173883080Y-81493170D01*
X173688830Y-81298920D01*
X173117525Y-81298920D01*
X172831945Y-81417211D01*
X172613371Y-81635785D01*
X172495080Y-81921365D01*
X171749300Y-81921365D01*
X171749300Y-77195815D01*
X172564852Y-77195815D01*
X172674514Y-77460607D01*
X173072327Y-77955334D01*
X173629182Y-78260165D01*
X173877998Y-78123118D01*
X173877998Y-78256507D01*
X173700646Y-78291785D01*
X173364867Y-78516144D01*
X173140508Y-78851923D01*
X173061723Y-79248000D01*
X173140508Y-79644077D01*
X173364867Y-79979856D01*
X173700646Y-80204215D01*
X174096723Y-80283000D01*
X174137277Y-80283000D01*
X174533354Y-80204215D01*
X174869133Y-79979856D01*
X175093492Y-79644077D01*
X175172277Y-79248000D01*
X175093492Y-78851923D01*
X174869133Y-78516144D01*
X174533354Y-78291785D01*
X174356002Y-78256507D01*
X174356002Y-78123118D01*
X174604818Y-78260165D01*
X175161673Y-77955334D01*
X175559486Y-77460607D01*
X175669148Y-77195815D01*
X175529675Y-76947000D01*
X174356000Y-76947000D01*
X174356000Y-76967000D01*
X173878000Y-76967000D01*
X173878000Y-76947000D01*
X172704325Y-76947000D01*
X172564852Y-77195815D01*
X171749300Y-77195815D01*
X171749300Y-76220185D01*
X172564852Y-76220185D01*
X172704325Y-76469000D01*
X173878000Y-76469000D01*
X173878000Y-76449000D01*
X174356000Y-76449000D01*
X174356000Y-76469000D01*
X175529675Y-76469000D01*
X175669148Y-76220185D01*
X175559486Y-75955393D01*
X175161673Y-75460666D01*
X174604818Y-75155835D01*
X174356002Y-75292882D01*
X174356002Y-75159493D01*
X174533354Y-75124215D01*
X174869133Y-74899856D01*
X175093492Y-74564077D01*
X175172277Y-74168000D01*
X175093492Y-73771923D01*
X174869133Y-73436144D01*
X174533354Y-73211785D01*
X174137277Y-73133000D01*
X174096723Y-73133000D01*
X173700646Y-73211785D01*
X173364867Y-73436144D01*
X173140508Y-73771923D01*
X173061723Y-74168000D01*
X173140508Y-74564077D01*
X173364867Y-74899856D01*
X173700646Y-75124215D01*
X173877998Y-75159493D01*
X173877998Y-75292882D01*
X173629182Y-75155835D01*
X173072327Y-75460666D01*
X172674514Y-75955393D01*
X172564852Y-76220185D01*
X171749300Y-76220185D01*
X171749300Y-72986900D01*
X171715883Y-72818902D01*
X171620720Y-72676480D01*
X169795730Y-70851490D01*
X169685745Y-70778000D01*
X173078376Y-70778000D01*
X173078376Y-72478000D01*
X173091276Y-72546557D01*
X173131793Y-72609522D01*
X173193615Y-72651763D01*
X173267000Y-72666624D01*
X174967000Y-72666624D01*
X175035557Y-72653724D01*
X175098522Y-72613207D01*
X175140763Y-72551385D01*
X175155624Y-72478000D01*
X175155624Y-70778000D01*
X175142724Y-70709443D01*
X175102207Y-70646478D01*
X175040385Y-70604237D01*
X174967000Y-70589376D01*
X173267000Y-70589376D01*
X173198443Y-70602276D01*
X173135478Y-70642793D01*
X173093237Y-70704615D01*
X173078376Y-70778000D01*
X169685745Y-70778000D01*
X169653308Y-70756327D01*
X169485310Y-70722910D01*
X166065864Y-70722910D01*
X166065864Y-70399910D01*
X166052964Y-70331353D01*
X166012447Y-70268388D01*
X165950625Y-70226147D01*
X165877240Y-70211286D01*
X164353240Y-70211286D01*
X164284683Y-70224186D01*
X164221718Y-70264703D01*
X164179477Y-70326525D01*
X164164616Y-70399910D01*
X144069464Y-70399910D01*
X144056564Y-70331353D01*
X144016047Y-70268388D01*
X143954225Y-70226147D01*
X143880840Y-70211286D01*
X142356840Y-70211286D01*
X142288283Y-70224186D01*
X142225318Y-70264703D01*
X142183077Y-70326525D01*
X142168216Y-70399910D01*
X142168216Y-70595910D01*
X138134090Y-70595910D01*
X137917491Y-70638994D01*
X137733868Y-70761687D01*
X134991938Y-73503618D01*
X134869244Y-73687241D01*
X134826160Y-73903840D01*
X134826160Y-82610195D01*
X134061273Y-83375083D01*
X134006105Y-83319818D01*
X133956700Y-83299303D01*
X133956700Y-82298600D01*
X133913616Y-82082001D01*
X133891740Y-82049262D01*
X133790923Y-81898378D01*
X132873922Y-80981378D01*
X132690299Y-80858684D01*
X132473700Y-80815600D01*
X128054100Y-80815600D01*
X127837501Y-80858684D01*
X127653878Y-80981377D01*
X125770338Y-82864918D01*
X125647644Y-83048541D01*
X125604560Y-83265140D01*
X125604560Y-84274096D01*
X125070560Y-84274096D01*
X125002003Y-84286996D01*
X124939038Y-84327513D01*
X124896797Y-84389335D01*
X124881936Y-84462720D01*
X124881936Y-86062720D01*
X124894836Y-86131277D01*
X124935353Y-86194242D01*
X124997175Y-86236483D01*
X125070560Y-86251344D01*
X125731560Y-86251344D01*
X125731560Y-86779000D01*
X125433860Y-87076700D01*
X117186940Y-87076700D01*
X117098200Y-86987960D01*
X117098200Y-86371664D01*
X117459200Y-86371664D01*
X117527757Y-86358764D01*
X117590722Y-86318247D01*
X117632963Y-86256425D01*
X117647824Y-86183040D01*
X117647824Y-84887776D01*
X117795580Y-84740020D01*
X117890743Y-84597598D01*
X117924160Y-84429600D01*
X117924160Y-83621880D01*
X117890743Y-83453882D01*
X117795580Y-83311460D01*
X117374420Y-82890300D01*
X117509450Y-82890300D01*
X117703700Y-82696050D01*
X117703700Y-81880800D01*
X117683700Y-81880800D01*
X117683700Y-81415800D01*
X117703700Y-81415800D01*
X117703700Y-81389300D01*
X118181700Y-81389300D01*
X118181700Y-81415800D01*
X118201700Y-81415800D01*
X118201700Y-81880800D01*
X118181700Y-81880800D01*
X118181700Y-82696050D01*
X118375950Y-82890300D01*
X118602255Y-82890300D01*
X118887835Y-82772009D01*
X119020200Y-82639644D01*
X119020200Y-84194416D01*
X118659200Y-84194416D01*
X118590643Y-84207316D01*
X118527678Y-84247833D01*
X118485437Y-84309655D01*
X118470576Y-84383040D01*
X118470576Y-86183040D01*
X118483476Y-86251597D01*
X118523993Y-86314562D01*
X118585815Y-86356803D01*
X118659200Y-86371664D01*
X120259200Y-86371664D01*
X120327757Y-86358764D01*
X120390722Y-86318247D01*
X120432963Y-86256425D01*
X120447824Y-86183040D01*
X120447824Y-85722040D01*
X120758616Y-85722040D01*
X120758616Y-85722080D01*
X120771516Y-85790637D01*
X120812033Y-85853602D01*
X120873855Y-85895843D01*
X120947240Y-85910704D01*
X122097240Y-85910704D01*
X122165797Y-85897804D01*
X122228762Y-85857287D01*
X122271003Y-85795465D01*
X122285864Y-85722080D01*
X122285864Y-84722080D01*
X122272964Y-84653523D01*
X122232447Y-84590558D01*
X122170625Y-84548317D01*
X122097240Y-84533456D01*
X120947240Y-84533456D01*
X120878683Y-84546356D01*
X120815718Y-84586873D01*
X120773477Y-84648695D01*
X120758616Y-84722080D01*
X120758616Y-84844040D01*
X120447824Y-84844040D01*
X120447824Y-84383040D01*
X120434924Y-84314483D01*
X120394407Y-84251518D01*
X120332585Y-84209277D01*
X120259200Y-84194416D01*
X119898200Y-84194416D01*
X119898200Y-80769920D01*
X119864783Y-80601922D01*
X119769620Y-80459500D01*
X119182420Y-79872300D01*
X119039998Y-79777137D01*
X118872000Y-79743720D01*
X115803680Y-79743720D01*
X115635682Y-79777137D01*
X115493260Y-79872300D01*
X115113840Y-80251720D01*
X114256820Y-80251720D01*
X114147345Y-80273496D01*
X113825020Y-80273496D01*
X113756463Y-80286396D01*
X113693498Y-80326913D01*
X113651257Y-80388735D01*
X113636396Y-80462120D01*
X113298426Y-80462120D01*
X113258523Y-80365548D01*
X113197220Y-80304138D01*
X113197220Y-80139120D01*
X114256820Y-80139120D01*
X114366295Y-80117344D01*
X114688620Y-80117344D01*
X114757177Y-80104444D01*
X114820142Y-80063927D01*
X114862383Y-80002105D01*
X114877244Y-79928720D01*
X114877244Y-79471520D01*
X114864344Y-79402963D01*
X114823827Y-79339998D01*
X114762005Y-79297757D01*
X114688620Y-79282896D01*
X114366295Y-79282896D01*
X114256820Y-79261120D01*
X112891800Y-79261120D01*
X112788280Y-79157600D01*
X112788280Y-78286840D01*
X113711260Y-77363860D01*
X113806423Y-77221438D01*
X113839840Y-77053440D01*
X113839840Y-75846210D01*
X114628000Y-75846210D01*
X114628000Y-77067515D01*
X114746291Y-77353095D01*
X114964865Y-77571669D01*
X115250445Y-77689960D01*
X115771750Y-77689960D01*
X115966000Y-77495710D01*
X115966000Y-75651960D01*
X116444000Y-75651960D01*
X116444000Y-77495710D01*
X116638250Y-77689960D01*
X117159555Y-77689960D01*
X117445135Y-77571669D01*
X117663709Y-77353095D01*
X117782000Y-77067515D01*
X117782000Y-75846210D01*
X117587750Y-75651960D01*
X116444000Y-75651960D01*
X115966000Y-75651960D01*
X114822250Y-75651960D01*
X114628000Y-75846210D01*
X113839840Y-75846210D01*
X113839840Y-73758405D01*
X114628000Y-73758405D01*
X114628000Y-74979710D01*
X114822250Y-75173960D01*
X115966000Y-75173960D01*
X115966000Y-73330210D01*
X116444000Y-73330210D01*
X116444000Y-75173960D01*
X117587750Y-75173960D01*
X117782000Y-74979710D01*
X117782000Y-73758405D01*
X117663709Y-73472825D01*
X117445135Y-73254251D01*
X117159555Y-73135960D01*
X116638250Y-73135960D01*
X116444000Y-73330210D01*
X115966000Y-73330210D01*
X115771750Y-73135960D01*
X115250445Y-73135960D01*
X114964865Y-73254251D01*
X114746291Y-73472825D01*
X114628000Y-73758405D01*
X113839840Y-73758405D01*
X113839840Y-71451960D01*
X115216376Y-71451960D01*
X115216376Y-72512960D01*
X115229276Y-72581517D01*
X115269793Y-72644482D01*
X115331615Y-72686723D01*
X115405000Y-72701584D01*
X117005000Y-72701584D01*
X117073557Y-72688684D01*
X117136522Y-72648167D01*
X117178763Y-72586345D01*
X117193624Y-72512960D01*
X117193624Y-71451960D01*
X117983360Y-71451960D01*
X118151358Y-71418543D01*
X118293780Y-71323380D01*
X118567320Y-71049840D01*
X119568764Y-71049840D01*
X119358025Y-71137131D01*
X119139451Y-71355705D01*
X119021160Y-71641285D01*
X119021160Y-71937590D01*
X119215410Y-72131840D01*
X120294160Y-72131840D01*
X120294160Y-72111840D01*
X120772160Y-72111840D01*
X120772160Y-72131840D01*
X120792160Y-72131840D01*
X120792160Y-72609840D01*
X120772160Y-72609840D01*
X120772160Y-72629840D01*
X120294160Y-72629840D01*
X120294160Y-72609840D01*
X119215410Y-72609840D01*
X119021160Y-72804090D01*
X119021160Y-73100395D01*
X119139451Y-73385975D01*
X119358025Y-73604549D01*
X119643605Y-73722840D01*
X119996800Y-73722840D01*
X119354060Y-74365580D01*
X119258897Y-74508002D01*
X119225480Y-74676000D01*
X119225480Y-77501520D01*
X118161840Y-78565160D01*
X116005840Y-78565160D01*
X115839780Y-78399100D01*
X115697358Y-78303937D01*
X115529360Y-78270520D01*
X114256820Y-78270520D01*
X114147345Y-78292296D01*
X113825020Y-78292296D01*
X113756463Y-78305196D01*
X113693498Y-78345713D01*
X113651257Y-78407535D01*
X113636396Y-78480920D01*
X113636396Y-78938120D01*
X113649296Y-79006677D01*
X113689813Y-79069642D01*
X113751635Y-79111883D01*
X113825020Y-79126744D01*
X114147345Y-79126744D01*
X114256820Y-79148520D01*
X115347520Y-79148520D01*
X115513580Y-79314580D01*
X115656002Y-79409743D01*
X115824000Y-79443160D01*
X118343680Y-79443160D01*
X118511678Y-79409743D01*
X118654100Y-79314580D01*
X119974900Y-77993780D01*
X120070063Y-77851358D01*
X120103480Y-77683360D01*
X120103480Y-75290680D01*
X120529956Y-75290680D01*
X120529956Y-77475080D01*
X120542856Y-77543637D01*
X120583373Y-77606602D01*
X120645195Y-77648843D01*
X120718580Y-77663704D01*
X121074600Y-77663704D01*
X121074600Y-78180536D01*
X120751600Y-78180536D01*
X120683043Y-78193436D01*
X120620078Y-78233953D01*
X120577837Y-78295775D01*
X120562976Y-78369160D01*
X120562976Y-80553560D01*
X120575876Y-80622117D01*
X120616393Y-80685082D01*
X120678215Y-80727323D01*
X120751600Y-80742184D01*
X121074600Y-80742184D01*
X121074600Y-83068160D01*
X121108017Y-83236158D01*
X121203180Y-83378580D01*
X121759440Y-83934840D01*
X121901862Y-84030003D01*
X122069860Y-84063420D01*
X123433240Y-84063420D01*
X123433240Y-84533456D01*
X123297240Y-84533456D01*
X123228683Y-84546356D01*
X123165718Y-84586873D01*
X123123477Y-84648695D01*
X123108616Y-84722080D01*
X123108616Y-85722080D01*
X123121516Y-85790637D01*
X123162033Y-85853602D01*
X123223855Y-85895843D01*
X123297240Y-85910704D01*
X124447240Y-85910704D01*
X124515797Y-85897804D01*
X124578762Y-85857287D01*
X124621003Y-85795465D01*
X124635864Y-85722080D01*
X124635864Y-84722080D01*
X124622964Y-84653523D01*
X124582447Y-84590558D01*
X124520625Y-84548317D01*
X124447240Y-84533456D01*
X124311240Y-84533456D01*
X124311240Y-83806280D01*
X124277823Y-83638282D01*
X124182660Y-83495860D01*
X124000800Y-83314000D01*
X123858378Y-83218837D01*
X123690380Y-83185420D01*
X122251700Y-83185420D01*
X121952600Y-82886320D01*
X121952600Y-80742184D01*
X122275600Y-80742184D01*
X122344157Y-80729284D01*
X122407122Y-80688767D01*
X122449363Y-80626945D01*
X122464224Y-80553560D01*
X122464224Y-79894610D01*
X123657600Y-79894610D01*
X123657600Y-80708115D01*
X123775891Y-80993695D01*
X123994465Y-81212269D01*
X124280045Y-81330560D01*
X124763350Y-81330560D01*
X124957600Y-81136310D01*
X124957600Y-79700360D01*
X125435600Y-79700360D01*
X125435600Y-81136310D01*
X125629850Y-81330560D01*
X126113155Y-81330560D01*
X126398735Y-81212269D01*
X126617309Y-80993695D01*
X126735600Y-80708115D01*
X126735600Y-79894610D01*
X126541350Y-79700360D01*
X125435600Y-79700360D01*
X124957600Y-79700360D01*
X123851850Y-79700360D01*
X123657600Y-79894610D01*
X122464224Y-79894610D01*
X122464224Y-78369160D01*
X122451324Y-78300603D01*
X122410807Y-78237638D01*
X122377097Y-78214605D01*
X123657600Y-78214605D01*
X123657600Y-79028110D01*
X123851850Y-79222360D01*
X124957600Y-79222360D01*
X124957600Y-79202360D01*
X125435600Y-79202360D01*
X125435600Y-79222360D01*
X126541350Y-79222360D01*
X126735600Y-79028110D01*
X126735600Y-78214605D01*
X126617309Y-77929025D01*
X126398735Y-77710451D01*
X126113155Y-77592160D01*
X126069488Y-77592160D01*
X126099343Y-77548465D01*
X126114204Y-77475080D01*
X126114204Y-76821880D01*
X129702560Y-76821880D01*
X129870558Y-76788463D01*
X130012980Y-76693300D01*
X130288880Y-76417400D01*
X130384043Y-76274978D01*
X130417461Y-76106980D01*
X130417460Y-76106975D01*
X130417460Y-74417944D01*
X131078460Y-74417944D01*
X131147017Y-74405044D01*
X131209982Y-74364527D01*
X131252223Y-74302705D01*
X131267084Y-74229320D01*
X131267084Y-69829320D01*
X131254184Y-69760763D01*
X131213667Y-69697798D01*
X131151845Y-69655557D01*
X131078460Y-69640696D01*
X128878460Y-69640696D01*
X128809903Y-69653596D01*
X128746938Y-69694113D01*
X128704697Y-69755935D01*
X128689836Y-69829320D01*
X128689836Y-74229320D01*
X128702736Y-74297877D01*
X128743253Y-74360842D01*
X128805075Y-74403083D01*
X128878460Y-74417944D01*
X129539460Y-74417944D01*
X129539460Y-75925140D01*
X129520720Y-75943880D01*
X126114204Y-75943880D01*
X126114204Y-75290680D01*
X126101304Y-75222123D01*
X126060787Y-75159158D01*
X125998965Y-75116917D01*
X125925580Y-75102056D01*
X124401580Y-75102056D01*
X124333023Y-75114956D01*
X124270058Y-75155473D01*
X124227817Y-75217295D01*
X124212956Y-75290680D01*
X124212956Y-77475080D01*
X124225856Y-77543637D01*
X124261913Y-77599671D01*
X123994465Y-77710451D01*
X123775891Y-77929025D01*
X123657600Y-78214605D01*
X122377097Y-78214605D01*
X122348985Y-78195397D01*
X122275600Y-78180536D01*
X121952600Y-78180536D01*
X121952600Y-77663704D01*
X122242580Y-77663704D01*
X122311137Y-77650804D01*
X122374102Y-77610287D01*
X122416343Y-77548465D01*
X122431204Y-77475080D01*
X122431204Y-75290680D01*
X122418304Y-75222123D01*
X122377787Y-75159158D01*
X122315965Y-75116917D01*
X122242580Y-75102056D01*
X120718580Y-75102056D01*
X120650023Y-75114956D01*
X120587058Y-75155473D01*
X120544817Y-75217295D01*
X120529956Y-75290680D01*
X120103480Y-75290680D01*
X120103480Y-74857840D01*
X120588000Y-74373320D01*
X123554197Y-74373320D01*
X123605075Y-74408083D01*
X123678460Y-74422944D01*
X125878460Y-74422944D01*
X125947017Y-74410044D01*
X126009982Y-74369527D01*
X126052223Y-74307705D01*
X126067084Y-74234320D01*
X126067084Y-73634320D01*
X126054184Y-73565763D01*
X126013667Y-73502798D01*
X125951845Y-73460557D01*
X125878460Y-73445696D01*
X123678460Y-73445696D01*
X123609903Y-73458596D01*
X123552832Y-73495320D01*
X121817524Y-73495320D01*
X121926869Y-73385975D01*
X121979464Y-73259000D01*
X122065870Y-73259000D01*
X122260120Y-73064750D01*
X122260120Y-72252000D01*
X122240120Y-72252000D01*
X122240120Y-71792000D01*
X122260120Y-71792000D01*
X122260120Y-71763000D01*
X122738120Y-71763000D01*
X122738120Y-71792000D01*
X122758120Y-71792000D01*
X122758120Y-72252000D01*
X122738120Y-72252000D01*
X122738120Y-73064750D01*
X122932370Y-73259000D01*
X123138675Y-73259000D01*
X123424255Y-73140709D01*
X123512270Y-73052694D01*
X123543253Y-73100842D01*
X123605075Y-73143083D01*
X123678460Y-73157944D01*
X125878460Y-73157944D01*
X125947017Y-73145044D01*
X126009982Y-73104527D01*
X126052223Y-73042705D01*
X126067084Y-72969320D01*
X126067084Y-69819320D01*
X126054184Y-69750763D01*
X126013667Y-69687798D01*
X125951845Y-69645557D01*
X125878460Y-69630696D01*
X123678460Y-69630696D01*
X123609903Y-69643596D01*
X123546938Y-69684113D01*
X123504697Y-69745935D01*
X123489836Y-69819320D01*
X123489836Y-70033000D01*
X123172744Y-70033000D01*
X123172744Y-70012000D01*
X123159844Y-69943443D01*
X123119327Y-69880478D01*
X123057505Y-69838237D01*
X122984120Y-69823376D01*
X122014120Y-69823376D01*
X121945563Y-69836276D01*
X121882598Y-69876793D01*
X121840357Y-69938615D01*
X121825496Y-70012000D01*
X121825496Y-70033000D01*
X121597720Y-70033000D01*
X121456784Y-70061034D01*
X121456784Y-70035840D01*
X121443884Y-69967283D01*
X121403367Y-69904318D01*
X121341545Y-69862077D01*
X121268160Y-69847216D01*
X119798160Y-69847216D01*
X119729603Y-69860116D01*
X119666638Y-69900633D01*
X119624397Y-69962455D01*
X119609536Y-70035840D01*
X119609536Y-70171840D01*
X118385480Y-70171840D01*
X118217482Y-70205257D01*
X118075060Y-70300420D01*
X117801520Y-70573960D01*
X117193624Y-70573960D01*
X117193624Y-69512960D01*
X117180724Y-69444403D01*
X117140207Y-69381438D01*
X117078385Y-69339197D01*
X117005000Y-69324336D01*
X115405000Y-69324336D01*
X115336443Y-69337236D01*
X115273478Y-69377753D01*
X115231237Y-69439575D01*
X115216376Y-69512960D01*
X115216376Y-70573960D01*
X113573920Y-70573960D01*
X113405922Y-70607377D01*
X113263500Y-70702540D01*
X113090420Y-70875620D01*
X112995257Y-71018042D01*
X112961840Y-71186040D01*
X112961840Y-76871600D01*
X112342700Y-77490740D01*
X111334780Y-77490740D01*
X111332860Y-77488820D01*
X111332860Y-77421740D01*
X111299443Y-77253742D01*
X111204280Y-77111320D01*
X108187764Y-74094804D01*
X109156154Y-74094804D01*
X109243635Y-74377722D01*
X109882598Y-74569602D01*
X110546352Y-74502357D01*
X110847245Y-74377722D01*
X110934726Y-74094804D01*
X110045440Y-73205517D01*
X109156154Y-74094804D01*
X108187764Y-74094804D01*
X107983500Y-73890540D01*
X107841078Y-73795377D01*
X107673080Y-73761960D01*
X107185199Y-73761960D01*
X107464722Y-73482925D01*
X107630251Y-73084287D01*
X107630582Y-72704678D01*
X108343358Y-72704678D01*
X108410603Y-73368432D01*
X108535238Y-73669325D01*
X108818156Y-73756806D01*
X109707443Y-72867520D01*
X110383437Y-72867520D01*
X111272724Y-73756806D01*
X111555642Y-73669325D01*
X111747522Y-73030362D01*
X111680277Y-72366608D01*
X111555642Y-72065715D01*
X111272724Y-71978234D01*
X110383437Y-72867520D01*
X109707443Y-72867520D01*
X108818156Y-71978234D01*
X108535238Y-72065715D01*
X108343358Y-72704678D01*
X107630582Y-72704678D01*
X107630628Y-72652647D01*
X107465794Y-72253720D01*
X107160845Y-71948238D01*
X106762207Y-71782709D01*
X106330567Y-71782332D01*
X105931640Y-71947166D01*
X105626158Y-72252115D01*
X105460629Y-72650753D01*
X105460252Y-73082393D01*
X105625086Y-73481320D01*
X105930035Y-73786802D01*
X106106440Y-73860052D01*
X106106440Y-74019120D01*
X104833020Y-75292540D01*
X104737857Y-75434962D01*
X104704440Y-75602960D01*
X104704440Y-77466169D01*
X104689677Y-77487775D01*
X104674816Y-77561160D01*
X104674816Y-77711344D01*
X104431340Y-77954820D01*
X104336177Y-78097242D01*
X104302760Y-78265240D01*
X104302760Y-78701809D01*
X104238203Y-78713956D01*
X104175238Y-78754473D01*
X104132997Y-78816295D01*
X104118136Y-78889680D01*
X104118136Y-79819680D01*
X104131036Y-79888237D01*
X104171553Y-79951202D01*
X104233375Y-79993443D01*
X104295331Y-80005989D01*
X104007380Y-80293940D01*
X103912217Y-80436362D01*
X103878800Y-80604360D01*
X102628460Y-80604360D01*
X102628460Y-71640236D01*
X109156154Y-71640236D01*
X110045440Y-72529523D01*
X110934726Y-71640236D01*
X110847245Y-71357318D01*
X110208282Y-71165438D01*
X109544528Y-71232683D01*
X109243635Y-71357318D01*
X109156154Y-71640236D01*
X102628460Y-71640236D01*
X102628460Y-68401960D01*
X179192160Y-68401960D01*
X179192160Y-102374940D01*
M02*
