G04 #@! TF.FileFunction,Legend,Bot*
%FSLAX46Y46*%
G04 Gerber Fmt 4.6, Leading zero omitted, Abs format (unit mm)*
G04 Created by KiCad (PCBNEW 4.0.7) date 10/09/19 11:40:26*
%MOMM*%
%LPD*%
G01*
G04 APERTURE LIST*
%ADD10C,0.100000*%
%ADD11C,0.300000*%
G04 APERTURE END LIST*
D10*
D11*
X177485929Y-99881571D02*
X177485929Y-101167286D01*
X177557358Y-101310143D01*
X177700215Y-101381571D01*
X177771643Y-101381571D01*
X177485929Y-99381571D02*
X177557358Y-99453000D01*
X177485929Y-99524429D01*
X177414501Y-99453000D01*
X177485929Y-99381571D01*
X177485929Y-99524429D01*
X176771643Y-100881571D02*
X176771643Y-99381571D01*
X176628786Y-100310143D02*
X176200215Y-100881571D01*
X176200215Y-99881571D02*
X176771643Y-100453000D01*
X175557357Y-100738714D02*
X175485929Y-100810143D01*
X175557357Y-100881571D01*
X175628786Y-100810143D01*
X175557357Y-100738714D01*
X175557357Y-100881571D01*
X175557357Y-99953000D02*
X175485929Y-100024429D01*
X175557357Y-100095857D01*
X175628786Y-100024429D01*
X175557357Y-99953000D01*
X175557357Y-100095857D01*
X173700214Y-100881571D02*
X173700214Y-99881571D01*
X173700214Y-100024429D02*
X173628786Y-99953000D01*
X173485928Y-99881571D01*
X173271643Y-99881571D01*
X173128786Y-99953000D01*
X173057357Y-100095857D01*
X173057357Y-100881571D01*
X173057357Y-100095857D02*
X172985928Y-99953000D01*
X172843071Y-99881571D01*
X172628786Y-99881571D01*
X172485928Y-99953000D01*
X172414500Y-100095857D01*
X172414500Y-100881571D01*
X171057357Y-100881571D02*
X171057357Y-99381571D01*
X171057357Y-100810143D02*
X171200214Y-100881571D01*
X171485928Y-100881571D01*
X171628786Y-100810143D01*
X171700214Y-100738714D01*
X171771643Y-100595857D01*
X171771643Y-100167286D01*
X171700214Y-100024429D01*
X171628786Y-99953000D01*
X171485928Y-99881571D01*
X171200214Y-99881571D01*
X171057357Y-99953000D01*
X170128785Y-100881571D02*
X170271643Y-100810143D01*
X170343071Y-100738714D01*
X170414500Y-100595857D01*
X170414500Y-100167286D01*
X170343071Y-100024429D01*
X170271643Y-99953000D01*
X170128785Y-99881571D01*
X169914500Y-99881571D01*
X169771643Y-99953000D01*
X169700214Y-100024429D01*
X169628785Y-100167286D01*
X169628785Y-100595857D01*
X169700214Y-100738714D01*
X169771643Y-100810143D01*
X169914500Y-100881571D01*
X170128785Y-100881571D01*
X169200214Y-99881571D02*
X168628785Y-99881571D01*
X168985928Y-99381571D02*
X168985928Y-100667286D01*
X168914500Y-100810143D01*
X168771642Y-100881571D01*
X168628785Y-100881571D01*
M02*
