M48
;DRILL file {KiCad 4.0.7} date 10/09/19 11:40:41
;FORMAT={-:-/ absolute / inch / decimal}
FMAT,2
INCH,TZ
T1C0.012
T2C0.039
T3C0.040
T4C0.047
%
G90
G05
M72
T1
X4.208Y-3.2796
X4.2122Y-3.1968
X4.2423Y-3.099
X4.3614Y-3.1296
X4.4428Y-3.1748
X4.4506Y-3.2542
X4.4928Y-3.2985
X4.5732Y-3.0558
X4.6455Y-3.2682
X4.929Y-3.2016
X5.0982Y-3.2508
T2
X6.855Y-2.82
X6.855Y-2.92
X6.855Y-3.02
X6.855Y-3.12
X6.8552Y-3.2648
X6.8552Y-3.3648
X6.8552Y-3.4648
X6.8552Y-3.5648
X6.8552Y-3.6648
X6.8552Y-3.7648
X6.8552Y-3.8648
T3
X5.6346Y-2.8016
X5.6346Y-2.8803
X5.6346Y-2.959
X5.6346Y-3.0377
X5.6346Y-3.1164
X5.6346Y-3.1951
X5.6346Y-3.2738
X5.6346Y-3.3525
X5.6346Y-3.4312
X5.6346Y-3.5099
X5.7921Y-3.8866
X5.8708Y-3.8866
X5.9495Y-3.8866
X6.0282Y-3.8866
X6.1069Y-3.8866
X6.1856Y-3.8866
X6.2643Y-3.8866
X6.343Y-3.8866
X6.5006Y-2.8016
X6.5006Y-2.8803
X6.5006Y-2.959
X6.5006Y-3.0377
X6.5006Y-3.1164
X6.5006Y-3.1951
X6.5006Y-3.2738
X6.5006Y-3.3525
X6.5006Y-3.4312
X6.5006Y-3.5099
T4
X4.1947Y-2.8688
X4.3325Y-2.8688
X5.2516Y-3.3165
X5.3894Y-3.3165
T0
M30
